<?xml version="1.0" encoding="utf-8" standalone="no"?>
<!DOCTYPE svg PUBLIC "-//W3C//DTD SVG 1.1//EN"
  "http://www.w3.org/Graphics/SVG/1.1/DTD/svg11.dtd">
<!-- Created with matplotlib (https://matplotlib.org/) -->
<svg height="360pt" version="1.1" viewBox="0 0 360 360" width="360pt" xmlns="http://www.w3.org/2000/svg" xmlns:xlink="http://www.w3.org/1999/xlink">
 <defs>
  <style type="text/css">
*{stroke-linecap:butt;stroke-linejoin:round;}
  </style>
 </defs>
 <g id="figure_1">
  <g id="patch_1">
   <path d="M 0 360 
L 360 360 
L 360 0 
L 0 0 
z
" style="fill:#ffffff;"/>
  </g>
  <g id="axes_1">
   <g id="line2d_1">
    <path clip-path="url(#p71771c20ec)" d="M 70.839939 220.431451 
L 41.450172 215.152278 
L 38.519455 214.977944 
L 36.122829 215.041629 
L 34.277976 215.270526 
L 32.518176 215.689374 
L 30.861037 216.321968 
L 29.753327 216.933517 
L 28.816557 217.6559 
L 28.068851 218.488315 
L 27.511115 219.446157 
L 27.189005 220.439568 
L 27.192496 221.104746 
L 27.441736 221.614946 
L 28.031617 222.113467 
L 29.042022 222.553305 
L 30.787634 223.027881 
L 33.14033 223.386071 
L 36.633022 223.654279 
L 40.669334 223.740339 
L 45.763762 223.598706 
L 52.426776 223.160767 
L 60.642751 222.38059 
L 68.821467 221.621057 
L 70.839142 221.518165 
L 70.839142 221.518165 
" style="fill:none;stroke:#000000;stroke-linecap:square;stroke-opacity:0.7;stroke-width:1.2;"/>
   </g>
   <g id="line2d_2">
    <path clip-path="url(#p71771c20ec)" d="M 70.839509 205.268034 
L 65.903942 204.725735 
L 49.032501 202.627626 
L 44.609439 202.424238 
L 40.694515 202.469761 
L 36.775409 202.740112 
L 32.894924 203.220141 
L 30.074384 203.761971 
L 28.446135 204.249413 
L 27.395493 204.799258 
L 27.191951 205.186169 
L 27.240849 205.435943 
L 27.558021 205.786291 
L 27.969592 206.004538 
L 29.602589 206.465138 
L 31.926087 206.889857 
L 35.312807 207.294097 
L 39.742981 207.579352 
L 44.17251 207.639794 
L 48.102791 207.478765 
L 53.050863 207.047341 
L 62.54512 205.921596 
L 68.455601 205.330013 
L 70.839462 205.259841 
L 70.839462 205.259841 
" style="fill:none;stroke:#000000;stroke-linecap:square;stroke-opacity:0.7;stroke-width:1.2;"/>
   </g>
   <g id="line2d_3">
    <path clip-path="url(#p71771c20ec)" d="M 70.84294 189.533518 
L 70.565145 189.469931 
L 68.799177 189.235635 
L 65.353725 188.525737 
L 60.898802 187.334764 
L 56.46731 186.187845 
L 53.019995 185.544692 
L 49.536873 185.134253 
L 46.034591 184.960251 
L 42.534899 185.03054 
L 39.058173 185.354075 
L 36.11139 185.839498 
L 33.209237 186.522373 
L 30.908748 187.252263 
L 29.202532 187.98661 
L 27.771314 188.839241 
L 27.195243 189.459589 
L 27.225302 189.659725 
L 27.638625 189.896292 
L 28.696512 190.140317 
L 31.119888 190.375491 
L 35.727013 190.52741 
L 44.028249 190.585696 
L 54.943155 190.423056 
L 62.700138 190.101576 
L 70.842333 189.547559 
L 70.842333 189.547559 
" style="fill:none;stroke:#000000;stroke-linecap:square;stroke-opacity:0.7;stroke-width:1.2;"/>
   </g>
   <g id="line2d_4">
    <path clip-path="url(#p71771c20ec)" d="M 70.839537 173.795324 
L 65.502059 172.498681 
L 61.622313 171.763721 
L 57.209514 171.167543 
L 52.755275 170.788658 
L 47.774715 170.588166 
L 42.796476 170.603125 
L 38.333184 170.819592 
L 33.903031 171.258209 
L 31.063446 171.710305 
L 29.314287 172.161894 
L 27.932559 172.729946 
L 27.371971 173.211065 
L 27.180663 173.639934 
L 27.214996 174.001288 
L 27.513003 174.424542 
L 28.172187 174.851184 
L 29.28298 175.210645 
L 31.054417 175.570808 
L 33.926773 175.88396 
L 38.897269 176.179234 
L 43.882374 176.256101 
L 49.370717 176.103614 
L 54.864056 175.727789 
L 61.874274 175.014754 
L 69.85638 173.995315 
L 70.839314 173.842248 
L 70.839314 173.842248 
" style="fill:none;stroke:#000000;stroke-linecap:square;stroke-opacity:0.7;stroke-width:1.2;"/>
   </g>
   <g id="line2d_5">
    <path clip-path="url(#p71771c20ec)" d="M 70.840287 158.070509 
L 56.894841 156.613874 
L 47.94559 155.904762 
L 41.50915 155.62342 
L 36.583504 155.612319 
L 33.226341 155.794733 
L 30.476175 156.176837 
L 28.901119 156.621753 
L 27.968397 157.093522 
L 27.378492 157.603725 
L 27.192566 158.100834 
L 27.284226 158.401288 
L 27.599001 158.697609 
L 28.022353 158.869654 
L 29.632799 159.137084 
L 33.006965 159.340819 
L 41.477224 159.54941 
L 47.932098 159.485826 
L 55.40032 159.178583 
L 66.39515 158.467732 
L 70.839529 158.124983 
L 70.839529 158.124983 
" style="fill:none;stroke:#000000;stroke-linecap:square;stroke-opacity:0.7;stroke-width:1.2;"/>
   </g>
   <g id="line2d_6">
    <path clip-path="url(#p71771c20ec)" d="M 70.839697 142.381494 
L 54.082478 140.315367 
L 47.519034 139.656934 
L 43.031124 139.384144 
L 39.613119 139.413799 
L 36.7061 139.666259 
L 33.818149 140.128696 
L 30.966206 140.794136 
L 28.275674 141.650577 
L 27.349785 142.134975 
L 27.205316 142.409809 
L 27.355402 142.507401 
L 27.840066 142.606788 
L 29.021499 142.565342 
L 36.485123 141.964431 
L 41.51664 141.859969 
L 46.021019 141.980942 
L 59.198303 142.584469 
L 67.82044 142.522879 
L 70.839569 142.381649 
L 70.839569 142.381649 
" style="fill:none;stroke:#000000;stroke-linecap:square;stroke-opacity:0.7;stroke-width:1.2;"/>
   </g>
   <g id="line2d_7">
    <path clip-path="url(#p71771c20ec)" d="M 123.239464 220.97726 
L 116.349676 219.073393 
L 109.902231 217.521933 
L 104.427741 216.408547 
L 99.951227 215.711756 
L 95.972608 215.310615 
L 92.490035 215.163864 
L 89.570314 215.235674 
L 87.26483 215.526138 
L 85.515914 215.959744 
L 83.854022 216.600784 
L 82.322733 217.448264 
L 81.017107 218.473701 
L 80.228814 219.355167 
L 79.673774 220.276649 
L 79.563685 220.834841 
L 79.687798 221.234244 
L 80.094843 221.655952 
L 80.552502 221.880471 
L 81.706205 222.181834 
L 83.534009 222.401005 
L 86.451261 222.515538 
L 89.934411 222.413954 
L 97.092305 221.90125 
L 105.261004 221.395315 
L 113.457896 221.136417 
L 123.238672 220.98545 
L 123.238672 220.98545 
" style="fill:none;stroke:#000000;stroke-linecap:square;stroke-opacity:0.7;stroke-width:1.2;"/>
   </g>
   <g id="line2d_8">
    <path clip-path="url(#p71771c20ec)" d="M 123.236718 205.269012 
L 117.851502 204.147852 
L 108.450125 202.457342 
L 104.032816 201.910341 
L 99.588135 201.59224 
L 95.142221 201.506112 
L 91.206357 201.64385 
L 87.824763 201.973774 
L 85.003005 202.465711 
L 82.805785 203.074198 
L 81.189191 203.746856 
L 80.289266 204.300029 
L 79.718683 204.91492 
L 79.586849 205.305099 
L 79.686871 205.529311 
L 79.916247 205.721688 
L 80.827077 206.091263 
L 82.535772 206.495484 
L 84.860066 206.786185 
L 88.288003 206.979274 
L 93.267145 207.009957 
L 99.26705 206.827088 
L 105.272214 206.408016 
L 119.816303 205.286005 
L 123.238635 205.25478 
L 123.238635 205.25478 
" style="fill:none;stroke:#000000;stroke-linecap:square;stroke-opacity:0.7;stroke-width:1.2;"/>
   </g>
   <g id="line2d_9">
    <path clip-path="url(#p71771c20ec)" d="M 123.238375 189.387146 
L 118.813625 188.871273 
L 112.852775 188.252684 
L 103.837372 187.557825 
L 97.350777 187.256198 
L 91.88473 187.216936 
L 87.967119 187.377183 
L 84.631818 187.740165 
L 82.378516 188.216457 
L 80.169534 188.8944 
L 79.607028 189.39743 
L 79.61815 189.587174 
L 79.800898 189.714248 
L 80.841406 190.006683 
L 82.570381 190.22652 
L 85.971784 190.344336 
L 95.529576 190.348833 
L 106.605813 190.140672 
L 118.695211 189.687401 
L 123.238333 189.486671 
L 123.238333 189.486671 
" style="fill:none;stroke:#000000;stroke-linecap:square;stroke-opacity:0.7;stroke-width:1.2;"/>
   </g>
   <g id="line2d_10">
    <path clip-path="url(#p71771c20ec)" d="M 123.238357 173.820921 
L 114.212261 168.890848 
L 110.840469 167.3648 
L 107.398124 166.028367 
L 104.973046 165.312693 
L 102.505697 164.856279 
L 99.999267 164.66042 
L 97.486207 164.725122 
L 94.980951 165.046618 
L 92.453908 165.591341 
L 89.465861 166.462438 
L 87.090204 167.378087 
L 84.838368 168.500498 
L 82.702199 169.848394 
L 81.221238 171.020261 
L 80.357071 171.956908 
L 79.753292 172.939703 
L 79.573955 173.696603 
L 79.718838 174.33408 
L 80.128111 174.854344 
L 80.719192 175.129223 
L 81.252505 175.170976 
L 82.38342 174.959948 
L 85.877309 173.803696 
L 93.357015 171.203859 
L 95.876679 170.662557 
L 98.977261 170.218494 
L 101.505447 170.071123 
L 104.026193 170.176709 
L 106.58415 170.501494 
L 110.216824 171.222334 
L 120.062336 173.420466 
L 123.238392 173.820865 
L 123.238392 173.820865 
" style="fill:none;stroke:#000000;stroke-linecap:square;stroke-opacity:0.7;stroke-width:1.2;"/>
   </g>
   <g id="line2d_11">
    <path clip-path="url(#p71771c20ec)" d="M 123.238227 158.101543 
L 120.414702 156.961742 
L 114.90654 155.085387 
L 110.375095 153.732519 
L 106.321462 152.744741 
L 102.758 152.097695 
L 99.18269 151.694515 
L 96.104117 151.556455 
L 93.021503 151.613209 
L 89.992122 151.880393 
L 87.581551 152.329518 
L 85.235154 153.033401 
L 83.484434 153.772354 
L 81.924254 154.685771 
L 80.937449 155.490691 
L 80.158752 156.385676 
L 79.699603 157.293075 
L 79.581766 158.100438 
L 79.768308 158.860591 
L 80.249782 159.565512 
L 80.93113 160.049621 
L 81.887977 160.325769 
L 83.153858 160.404376 
L 85.020933 160.270705 
L 87.448353 159.820736 
L 90.433003 159.023674 
L 97.544702 157.018651 
L 101.086102 156.257163 
L 104.13517 155.798434 
L 107.196698 155.54241 
L 110.253256 155.507469 
L 113.293236 155.708848 
L 116.30216 156.15232 
L 119.261481 156.841487 
L 122.734214 157.930832 
L 123.238307 158.10103 
L 123.238307 158.10103 
" style="fill:none;stroke:#000000;stroke-linecap:square;stroke-opacity:0.7;stroke-width:1.2;"/>
   </g>
   <g id="line2d_12">
    <path clip-path="url(#p71771c20ec)" d="M 123.23771 142.349557 
L 116.775023 141.688835 
L 110.823091 140.804787 
L 103.882631 139.800613 
L 99.965336 139.439697 
L 96.020258 139.299532 
L 91.041827 139.346 
L 85.596037 139.613422 
L 83.360596 139.931511 
L 81.755356 140.404944 
L 80.744952 140.899089 
L 80.046352 141.476071 
L 79.630454 142.114137 
L 79.606 142.530619 
L 79.850543 142.878416 
L 80.408082 143.183301 
L 81.526415 143.441718 
L 83.239071 143.567312 
L 104.202615 143.585786 
L 116.296105 143.035083 
L 121.764402 142.588152 
L 123.238825 142.420773 
L 123.238825 142.420773 
" style="fill:none;stroke:#000000;stroke-linecap:square;stroke-opacity:0.7;stroke-width:1.2;"/>
   </g>
   <g id="line2d_13">
    <path clip-path="url(#p71771c20ec)" d="M 175.643704 220.97006 
L 174.567888 220.545076 
L 171.695712 219.817291 
L 164.614778 218.338933 
L 155.984028 216.728819 
L 152.506716 216.251002 
L 149.030077 216.020155 
L 146.05148 216.032176 
L 143.095635 216.248557 
L 140.192698 216.692479 
L 137.829473 217.256591 
L 135.614559 218.018261 
L 134.011772 218.81079 
L 132.977387 219.502893 
L 132.256938 220.221517 
L 131.99489 220.756274 
L 132.040671 221.099943 
L 132.356224 221.36161 
L 133.395369 221.777266 
L 135.706477 222.340927 
L 138.646998 222.804529 
L 142.663613 223.195058 
L 146.698953 223.348783 
L 150.741189 223.272933 
L 154.77614 222.974727 
L 158.247893 222.513507 
L 168.760643 220.789137 
L 171.707433 220.609842 
L 174.073885 220.689388 
L 175.289821 220.877826 
L 175.638293 220.976994 
L 175.638293 220.976994 
" style="fill:none;stroke:#000000;stroke-linecap:square;stroke-opacity:0.7;stroke-width:1.2;"/>
   </g>
   <g id="line2d_14">
    <path clip-path="url(#p71771c20ec)" d="M 175.637017 205.26109 
L 174.506558 204.737272 
L 172.820314 204.226537 
L 169.413303 203.551121 
L 162.383993 202.383691 
L 155.852791 201.480962 
L 151.35052 201.058564 
L 146.862776 200.846969 
L 143.988507 200.940217 
L 141.608226 201.229347 
L 138.757994 201.808696 
L 136.551247 202.461313 
L 134.415007 203.434275 
L 132.939857 204.286856 
L 132.01591 205.072243 
L 131.992955 205.300206 
L 132.132736 205.440261 
L 132.505162 205.59708 
L 133.062961 205.658964 
L 136.514078 205.648003 
L 148.219209 205.295796 
L 157.924794 205.28903 
L 174.179103 205.359802 
L 175.637127 205.258895 
L 175.637127 205.258895 
" style="fill:none;stroke:#000000;stroke-linecap:square;stroke-opacity:0.7;stroke-width:1.2;"/>
   </g>
   <g id="line2d_15">
    <path clip-path="url(#p71771c20ec)" d="M 175.636885 189.495118 
L 168.729096 188.540599 
L 162.795723 187.9283 
L 156.852142 187.537658 
L 150.896014 187.370172 
L 144.93297 187.420118 
L 140.00299 187.649842 
L 136.125155 188.037108 
L 133.860625 188.409713 
L 132.790645 188.742938 
L 132.177402 189.151713 
L 131.986774 189.510348 
L 132.081443 189.811083 
L 132.556218 190.220102 
L 133.480501 190.57527 
L 135.174799 190.910823 
L 139.040972 191.353951 
L 143.459909 191.61801 
L 149.415936 191.722213 
L 155.374071 191.602724 
L 161.324834 191.265191 
L 167.261952 190.714618 
L 173.179115 189.956024 
L 175.637204 189.579746 
L 175.637204 189.579746 
" style="fill:none;stroke:#000000;stroke-linecap:square;stroke-opacity:0.7;stroke-width:1.2;"/>
   </g>
   <g id="line2d_16">
    <path clip-path="url(#p71771c20ec)" d="M 175.636313 173.82383 
L 172.885593 172.958432 
L 169.540795 172.157546 
L 164.62286 171.223887 
L 159.678015 170.496883 
L 154.711513 169.99582 
L 150.242384 169.764888 
L 146.300524 169.787631 
L 142.888236 170.024334 
L 139.520113 170.496747 
L 136.731379 171.119137 
L 134.567269 171.854866 
L 133.099156 172.588108 
L 132.29717 173.232028 
L 131.983266 173.760526 
L 132.070156 174.039924 
L 132.360934 174.236986 
L 133.458248 174.504202 
L 135.225733 174.708656 
L 138.66729 174.798226 
L 144.191912 174.71857 
L 150.736774 174.411563 
L 168.35953 173.379652 
L 172.293196 173.46838 
L 175.166508 173.744113 
L 175.638059 173.812355 
L 175.638059 173.812355 
" style="fill:none;stroke:#000000;stroke-linecap:square;stroke-opacity:0.7;stroke-width:1.2;"/>
   </g>
   <g id="line2d_17">
    <path clip-path="url(#p71771c20ec)" d="M 175.634642 158.133504 
L 173.399216 157.510311 
L 169.009535 156.61887 
L 162.051093 155.448818 
L 157.099374 154.808897 
L 153.158008 154.497798 
L 149.724149 154.41751 
L 146.283921 154.53809 
L 142.34691 154.89919 
L 138.95706 155.399221 
L 136.133692 156.01554 
L 133.988373 156.703091 
L 132.540255 157.445022 
L 132.071505 157.870744 
L 131.995481 158.1793 
L 132.18696 158.382373 
L 132.899283 158.708181 
L 134.58558 159.071995 
L 137.460267 159.410216 
L 141.403368 159.614221 
L 145.871064 159.616229 
L 150.331149 159.381494 
L 157.368799 158.709212 
L 164.394885 158.120959 
L 169.880185 157.88409 
L 173.314866 157.927461 
L 175.63726 158.125291 
L 175.63726 158.125291 
" style="fill:none;stroke:#000000;stroke-linecap:square;stroke-opacity:0.7;stroke-width:1.2;"/>
   </g>
   <g id="line2d_18">
    <path clip-path="url(#p71771c20ec)" d="M 175.637802 142.381065 
L 175.348016 142.249069 
L 173.505847 141.83738 
L 157.803715 139.257893 
L 150.006317 137.614319 
L 143.706956 136.260698 
L 141.892586 136.358879 
L 140.033829 136.687536 
L 138.216775 137.227626 
L 136.471537 137.967659 
L 134.871806 138.886778 
L 133.471395 139.995269 
L 132.638019 140.903101 
L 132.143081 141.771287 
L 131.96865 142.524973 
L 132.052175 142.811144 
L 132.322756 143.017297 
L 133.090463 143.119959 
L 134.303505 142.979384 
L 140.697169 141.779692 
L 143.161133 141.699864 
L 146.209525 141.864314 
L 156.737395 142.694815 
L 163.636438 142.935772 
L 169.40479 142.995894 
L 172.469914 142.820339 
L 175.392797 142.45284 
L 175.638133 142.38487 
L 175.638133 142.38487 
" style="fill:none;stroke:#000000;stroke-linecap:square;stroke-opacity:0.7;stroke-width:1.2;"/>
   </g>
   <g id="line2d_19">
    <path clip-path="url(#p71771c20ec)" d="M 228.038859 220.974732 
L 213.128045 217.172867 
L 208.664686 216.329477 
L 205.206049 215.884203 
L 202.257044 215.693961 
L 199.326083 215.713719 
L 196.396801 215.964177 
L 193.476113 216.431181 
L 190.62171 217.095214 
L 188.354938 217.829174 
L 186.270195 218.75778 
L 185.283461 219.406356 
L 184.563479 220.107811 
L 184.355189 220.568857 
L 184.388629 221.019997 
L 184.691332 221.470603 
L 185.359374 221.898887 
L 186.975069 222.419004 
L 189.31629 222.86786 
L 192.773037 223.284068 
L 196.776783 223.521917 
L 200.775471 223.52167 
L 204.254079 223.296088 
L 208.768175 222.745709 
L 222.423644 220.856592 
L 225.308893 220.73154 
L 227.143433 220.845739 
L 228.036185 220.978433 
L 228.036185 220.978433 
" style="fill:none;stroke:#000000;stroke-linecap:square;stroke-opacity:0.7;stroke-width:1.2;"/>
   </g>
   <g id="line2d_20">
    <path clip-path="url(#p71771c20ec)" d="M 228.036366 205.083642 
L 217.108901 203.333263 
L 210.163931 202.426635 
L 204.727712 201.938962 
L 200.295131 201.757696 
L 196.369228 201.803775 
L 192.994517 202.055216 
L 190.184142 202.490239 
L 187.914533 203.044051 
L 186.248466 203.61881 
L 185.22282 204.144949 
L 184.59768 204.699351 
L 184.385618 205.218489 
L 184.465378 205.519438 
L 184.830963 205.915045 
L 185.258668 206.135278 
L 186.355869 206.420269 
L 188.653905 206.676167 
L 193.076627 206.909155 
L 199.077956 206.970821 
L 207.608443 206.842754 
L 215.110314 206.500218 
L 221.587365 205.992278 
L 228.037069 205.257338 
L 228.037069 205.257338 
" style="fill:none;stroke:#000000;stroke-linecap:square;stroke-opacity:0.7;stroke-width:1.2;"/>
   </g>
   <g id="line2d_21">
    <path clip-path="url(#p71771c20ec)" d="M 228.036 189.540171 
L 223.651244 188.580234 
L 218.219653 187.630739 
L 213.2533 186.97491 
L 208.782263 186.578678 
L 204.319129 186.41325 
L 199.846912 186.494765 
L 195.376232 186.804452 
L 191.440057 187.27704 
L 188.605428 187.786145 
L 186.840728 188.286645 
L 184.821381 189.081807 
L 184.373585 189.503227 
L 184.475701 189.679765 
L 184.979851 189.870091 
L 186.010101 189.830704 
L 191.992643 189.337522 
L 201.52813 188.398249 
L 206.531963 188.15481 
L 211.532383 188.125969 
L 216.521948 188.329357 
L 222.020582 188.806521 
L 228.03581 189.536753 
L 228.03581 189.536753 
" style="fill:none;stroke:#000000;stroke-linecap:square;stroke-opacity:0.7;stroke-width:1.2;"/>
   </g>
   <g id="line2d_22">
    <path clip-path="url(#p71771c20ec)" d="M 228.033722 173.827846 
L 226.877462 173.35264 
L 224.091151 172.541743 
L 220.195108 171.644524 
L 215.256556 170.733339 
L 210.79142 170.126669 
L 206.31055 169.743026 
L 202.32365 169.6079 
L 198.361726 169.702585 
L 194.933012 170.007225 
L 191.553752 170.547431 
L 188.751379 171.2183 
L 187.038223 171.816049 
L 185.519143 172.57054 
L 184.759766 173.174067 
L 184.377731 173.752858 
L 184.455202 174.01303 
L 184.699694 174.176106 
L 186.26008 174.506265 
L 188.591157 174.693617 
L 193.096387 174.754503 
L 199.171736 174.597274 
L 205.228326 174.223651 
L 218.891038 173.235406 
L 222.858499 173.217474 
L 225.729857 173.423978 
L 228.037684 173.815482 
L 228.037684 173.815482 
" style="fill:none;stroke:#000000;stroke-linecap:square;stroke-opacity:0.7;stroke-width:1.2;"/>
   </g>
   <g id="line2d_23">
    <path clip-path="url(#p71771c20ec)" d="M 228.035865 158.101338 
L 213.705573 155.94022 
L 208.285869 155.412423 
L 203.352481 155.143119 
L 198.420729 155.094009 
L 193.495375 155.281533 
L 190.657791 155.539245 
L 188.401174 155.975686 
L 186.282256 156.622511 
L 185.23743 157.121661 
L 184.554757 157.672186 
L 184.388857 158.100611 
L 184.568548 158.391985 
L 185.075403 158.659395 
L 186.212246 158.818593 
L 188.536307 158.930439 
L 198.031728 158.895746 
L 209.060869 158.727529 
L 226.580883 158.170016 
L 228.035898 158.100669 
L 228.035898 158.100669 
" style="fill:none;stroke:#000000;stroke-linecap:square;stroke-opacity:0.7;stroke-width:1.2;"/>
   </g>
   <g id="line2d_24">
    <path clip-path="url(#p71771c20ec)" d="M 228.035385 142.388442 
L 225.181169 141.707824 
L 220.303266 140.222198 
L 214.919649 138.651599 
L 211.008773 137.728062 
L 207.571851 137.127789 
L 204.119594 136.758648 
L 201.158382 136.650269 
L 198.215863 136.753157 
L 195.311008 137.08454 
L 192.461213 137.660941 
L 190.143185 138.339441 
L 187.970871 139.208254 
L 186.399282 140.071347 
L 185.124646 141.044167 
L 184.538448 141.786181 
L 184.375534 142.304443 
L 184.466408 142.75959 
L 184.830349 143.212531 
L 185.532302 143.594742 
L 186.741308 143.91567 
L 188.564998 144.193622 
L 191.515558 144.37152 
L 196.598916 144.425026 
L 203.250918 144.241526 
L 209.378316 143.852637 
L 216.535056 143.159733 
L 224.660576 142.379671 
L 227.562116 142.351602 
L 228.036729 142.375838 
L 228.036729 142.375838 
" style="fill:none;stroke:#000000;stroke-linecap:square;stroke-opacity:0.7;stroke-width:1.2;"/>
   </g>
   <g id="line2d_25">
    <path clip-path="url(#p71771c20ec)" d="M 280.435207 220.97854 
L 275.029637 219.980483 
L 269.088299 219.109252 
L 263.636278 218.54418 
L 258.681503 218.271648 
L 254.21321 218.246536 
L 249.232917 218.434393 
L 244.793421 218.796496 
L 241.404483 219.259086 
L 238.64541 219.862066 
L 237.561529 220.229627 
L 236.935702 220.640834 
L 236.780909 220.949118 
L 236.844536 221.20627 
L 237.165648 221.517396 
L 238.066402 221.937215 
L 239.788888 222.408909 
L 242.117854 222.828908 
L 246.030205 223.275969 
L 249.968297 223.521612 
L 253.880936 223.541595 
L 257.287177 223.31975 
L 262.232935 222.72937 
L 274.662409 221.112178 
L 278.057918 220.932 
L 280.434887 220.979253 
L 280.434887 220.979253 
" style="fill:none;stroke:#000000;stroke-linecap:square;stroke-opacity:0.7;stroke-width:1.2;"/>
   </g>
   <g id="line2d_26">
    <path clip-path="url(#p71771c20ec)" d="M 280.434624 205.260414 
L 264.357684 201.240815 
L 258.921545 199.821992 
L 255.505657 199.174624 
L 252.580539 198.859608 
L 250.157193 198.797521 
L 247.759126 198.941319 
L 245.419691 199.315107 
L 243.614586 199.796042 
L 241.8853 200.45096 
L 240.273355 201.283038 
L 238.837388 202.291183 
L 237.630196 203.463709 
L 237.032308 204.340207 
L 236.780754 205.102394 
L 236.83764 205.681218 
L 237.134465 206.175725 
L 237.876722 206.726712 
L 238.94175 207.199901 
L 240.165482 207.531748 
L 241.9958 207.796125 
L 244.970056 207.973048 
L 248.48956 207.986705 
L 252.521612 207.769632 
L 263.868016 206.718996 
L 280.434833 205.261116 
L 280.434833 205.261116 
" style="fill:none;stroke:#000000;stroke-linecap:square;stroke-opacity:0.7;stroke-width:1.2;"/>
   </g>
   <g id="line2d_27">
    <path clip-path="url(#p71771c20ec)" d="M 280.435123 189.45156 
L 275.490095 188.921873 
L 269.552462 188.049561 
L 256.717573 186.024695 
L 252.804886 185.72362 
L 249.390591 185.66514 
L 245.996149 185.824023 
L 243.668092 186.095387 
L 241.940528 186.494527 
L 239.791056 187.264972 
L 238.237352 188.029824 
L 237.310906 188.67334 
L 236.835806 189.237648 
L 236.811512 189.617256 
L 237.020105 189.860888 
L 237.495706 190.052623 
L 238.676624 190.070755 
L 242.619792 189.886737 
L 248.11123 189.685455 
L 257.688991 189.609654 
L 280.43438 189.625388 
L 280.43438 189.625388 
" style="fill:none;stroke:#000000;stroke-linecap:square;stroke-opacity:0.7;stroke-width:1.2;"/>
   </g>
   <g id="line2d_28">
    <path clip-path="url(#p71771c20ec)" d="M 280.434795 173.82105 
L 277.568626 173.5832 
L 272.162105 172.881675 
L 266.260506 172.05384 
L 261.332081 171.606013 
L 256.384435 171.373715 
L 251.426191 171.349159 
L 246.497572 171.543653 
L 242.616666 171.924776 
L 239.841167 172.399026 
L 238.155586 172.891616 
L 237.23373 173.307735 
L 236.780476 173.768859 
L 236.804807 173.93349 
L 237.210393 174.304418 
L 238.114438 174.744642 
L 239.765696 175.215984 
L 242.556726 175.715468 
L 245.938319 176.059338 
L 250.364518 176.268449 
L 255.82437 176.278553 
L 260.773364 176.082712 
L 265.195705 175.703008 
L 270.626943 174.994501 
L 278.506577 173.957516 
L 280.43525 173.820427 
L 280.43525 173.820427 
" style="fill:none;stroke:#000000;stroke-linecap:square;stroke-opacity:0.7;stroke-width:1.2;"/>
   </g>
   <g id="line2d_29">
    <path clip-path="url(#p71771c20ec)" d="M 280.434651 158.044583 
L 271.481144 156.828448 
L 263.507398 155.969803 
L 255.520473 155.336417 
L 250.590671 155.158172 
L 246.698042 155.25606 
L 243.346727 155.582923 
L 240.533785 156.083253 
L 238.390959 156.683681 
L 237.207893 157.255965 
L 236.863646 157.676233 
L 236.768069 158.101954 
L 236.8806 158.459628 
L 237.227548 158.77787 
L 238.168226 159.183889 
L 239.874886 159.590446 
L 242.70984 160.043947 
L 246.076196 160.32301 
L 250.010347 160.40885 
L 255.986634 160.293384 
L 262.473474 159.938262 
L 270.472577 159.265024 
L 278.946787 158.345721 
L 280.434796 158.15459 
L 280.434796 158.15459 
" style="fill:none;stroke:#000000;stroke-linecap:square;stroke-opacity:0.7;stroke-width:1.2;"/>
   </g>
   <g id="line2d_30">
    <path clip-path="url(#p71771c20ec)" d="M 280.435152 142.379119 
L 277.056601 142.301062 
L 273.147481 141.967184 
L 267.205099 141.206453 
L 256.784923 139.846563 
L 252.361307 139.500342 
L 248.450936 139.403716 
L 245.07887 139.534849 
L 242.248965 139.866997 
L 240.036119 140.344237 
L 238.450092 140.922412 
L 237.506867 141.444254 
L 236.928429 142.019933 
L 236.783457 142.442908 
L 236.965654 142.605736 
L 237.545391 142.801026 
L 239.834807 142.944754 
L 245.314454 143.057078 
L 255.367539 143.038422 
L 270.979295 142.770855 
L 279.459896 142.451668 
L 280.434398 142.377529 
L 280.434398 142.377529 
" style="fill:none;stroke:#000000;stroke-linecap:square;stroke-opacity:0.7;stroke-width:1.2;"/>
   </g>
   <g id="line2d_31">
    <path clip-path="url(#p71771c20ec)" d="M 332.83386 220.980662 
L 315.965052 217.196649 
L 311.498376 216.524372 
L 307.524643 216.129454 
L 303.552697 215.957454 
L 300.101561 216.018536 
L 297.238241 216.299181 
L 294.948074 216.757149 
L 293.282514 217.305994 
L 291.208481 218.299563 
L 290.239604 218.949193 
L 289.550805 219.665419 
L 289.185474 220.406514 
L 289.16155 220.93477 
L 289.379345 221.38855 
L 289.84271 221.760077 
L 290.683624 221.991082 
L 291.839623 222.042792 
L 309.145093 221.446884 
L 317.823973 221.497071 
L 326.456573 221.523404 
L 330.406465 221.2818 
L 332.834174 220.977475 
L 332.834174 220.977475 
" style="fill:none;stroke:#000000;stroke-linecap:square;stroke-opacity:0.7;stroke-width:1.2;"/>
   </g>
   <g id="line2d_32">
    <path clip-path="url(#p71771c20ec)" d="M 332.833121 205.210153 
L 329.512012 204.377881 
L 325.64885 203.655425 
L 321.73002 203.148245 
L 317.278342 202.797196 
L 312.303321 202.639042 
L 306.804792 202.701436 
L 300.78986 202.99166 
L 295.851196 203.434102 
L 292.464283 203.938139 
L 290.298841 204.452167 
L 289.478123 204.84598 
L 289.186616 205.236811 
L 289.25344 205.451783 
L 289.473853 205.67106 
L 289.960635 205.944027 
L 291.094955 206.296069 
L 293.413644 206.746256 
L 296.813863 207.196555 
L 301.266563 207.555552 
L 307.788767 207.843427 
L 313.290647 207.871533 
L 318.259722 207.670427 
L 322.693099 207.266239 
L 326.594861 206.70247 
L 330.453423 205.923123 
L 332.840614 205.316759 
L 332.840614 205.316759 
" style="fill:none;stroke:#000000;stroke-linecap:square;stroke-opacity:0.7;stroke-width:1.2;"/>
   </g>
   <g id="line2d_33">
    <path clip-path="url(#p71771c20ec)" d="M 332.833569 189.540548 
L 324.105518 187.220016 
L 318.160552 185.997611 
L 313.719974 185.313181 
L 309.763298 184.946195 
L 306.307992 184.843698 
L 302.87468 184.971129 
L 299.959816 185.281436 
L 297.092497 185.794534 
L 294.308445 186.535954 
L 292.072976 187.347683 
L 290.465699 188.098469 
L 289.629889 188.699079 
L 289.244464 189.221454 
L 289.21072 189.672194 
L 289.453879 190.038544 
L 290.022692 190.374525 
L 291.675015 190.779189 
L 294.571911 191.198499 
L 299.0603 191.612349 
L 302.525654 191.737058 
L 306.526612 191.667079 
L 311.025888 191.382414 
L 314.987946 190.919503 
L 324.906603 189.538685 
L 328.327493 189.407351 
L 332.833427 189.540431 
L 332.833427 189.540431 
" style="fill:none;stroke:#000000;stroke-linecap:square;stroke-opacity:0.7;stroke-width:1.2;"/>
   </g>
   <g id="line2d_34">
    <path clip-path="url(#p71771c20ec)" d="M 332.831841 173.825265 
L 329.101806 172.209894 
L 325.291266 170.798244 
L 321.410795 169.595108 
L 317.468992 168.603976 
L 313.46912 167.813919 
L 308.92508 167.14439 
L 304.901699 166.781618 
L 301.404506 166.709369 
L 299.01483 166.86666 
L 297.205005 167.192344 
L 295.417093 167.72808 
L 293.715521 168.436532 
L 292.150895 169.327903 
L 291.132703 170.1037 
L 290.330029 170.943479 
L 289.630181 172.013873 
L 289.148419 173.049579 
L 289.105287 173.610787 
L 289.274607 173.996414 
L 289.692308 174.334708 
L 290.137734 174.468409 
L 291.888002 174.617995 
L 297.561286 174.60103 
L 325.685985 174.286957 
L 331.840749 173.92156 
L 332.833511 173.82098 
L 332.833511 173.82098 
" style="fill:none;stroke:#000000;stroke-linecap:square;stroke-opacity:0.7;stroke-width:1.2;"/>
   </g>
   <g id="line2d_35">
    <path clip-path="url(#p71771c20ec)" d="M 332.833177 158.105217 
L 324.712122 157.183105 
L 317.638262 156.154807 
L 306.027193 154.425263 
L 302.062994 154.093179 
L 299.160625 154.063982 
L 296.826738 154.267048 
L 294.531959 154.723502 
L 292.783103 155.260622 
L 291.220341 155.973976 
L 290.193621 156.643689 
L 289.517429 157.307034 
L 289.185595 157.943672 
L 289.199099 158.257428 
L 289.521148 158.50306 
L 290.401212 158.825252 
L 292.724504 159.246729 
L 296.708192 159.676625 
L 303.309017 160.147244 
L 309.403444 160.36306 
L 315.5009 160.354637 
L 321.053242 160.130526 
L 324.501072 159.789325 
L 327.381272 159.299822 
L 332.833181 158.097409 
L 332.833181 158.097409 
" style="fill:none;stroke:#000000;stroke-linecap:square;stroke-opacity:0.7;stroke-width:1.2;"/>
   </g>
   <g id="line2d_36">
    <path clip-path="url(#p71771c20ec)" d="M 332.832676 142.384558 
L 330.081956 141.519159 
L 326.737158 140.718273 
L 321.819223 139.784614 
L 316.874378 139.05761 
L 311.907876 138.556548 
L 307.438746 138.325616 
L 303.496887 138.348359 
L 300.084599 138.585061 
L 296.716475 139.057475 
L 293.927742 139.679864 
L 291.763632 140.415594 
L 290.295518 141.148835 
L 289.493533 141.792755 
L 289.179629 142.321253 
L 289.266518 142.600652 
L 289.557297 142.797714 
L 290.65461 143.06493 
L 292.422095 143.269383 
L 295.863653 143.358953 
L 301.388275 143.279298 
L 307.933137 142.97229 
L 325.555893 141.940379 
L 329.489558 142.029108 
L 332.362871 142.304841 
L 332.834421 142.373083 
L 332.834421 142.373083 
" style="fill:none;stroke:#000000;stroke-linecap:square;stroke-opacity:0.7;stroke-width:1.2;"/>
   </g>
  </g>
 </g>
 <defs>
  <clipPath id="p71771c20ec">
   <rect height="334.08" width="334.08" x="12.96" y="12.96"/>
  </clipPath>
 </defs>
</svg>
