<?xml version="1.0" encoding="utf-8" standalone="no"?>
<!DOCTYPE svg PUBLIC "-//W3C//DTD SVG 1.1//EN"
  "http://www.w3.org/Graphics/SVG/1.1/DTD/svg11.dtd">
<!-- Created with matplotlib (https://matplotlib.org/) -->
<svg height="432pt" version="1.1" viewBox="0 0 648 432" width="648pt" xmlns="http://www.w3.org/2000/svg" xmlns:xlink="http://www.w3.org/1999/xlink">
 <defs>
  <style type="text/css">
*{stroke-linecap:butt;stroke-linejoin:round;}
  </style>
 </defs>
 <g id="figure_1">
  <g id="patch_1">
   <path d="M 0 432 
L 648 432 
L 648 0 
L 0 0 
z
" style="fill:#ffffff;"/>
  </g>
  <g id="axes_1">
   <g id="line2d_1">
    <path clip-path="url(#pbf5214d4c6)" d="M 85.876347 177.05604 
L 82.654627 175.574925 
L 79.049264 174.227199 
L 74.981944 172.976809 
L 70.998691 171.993674 
L 66.626631 171.166281 
L 62.104372 170.562667 
L 57.632561 170.19215 
L 52.946438 170.022149 
L 48.167621 170.066213 
L 43.715238 170.313132 
L 39.412745 170.781111 
L 36.277002 171.322984 
L 33.802576 171.937978 
L 31.56271 172.732146 
L 30.042578 173.493058 
L 28.671133 174.46718 
L 27.701721 175.493686 
L 27.09536 176.512376 
L 26.823447 177.4268 
L 26.823128 178.026798 
L 27.060391 178.528373 
L 27.418436 178.761495 
L 28.329295 178.942177 
L 29.850813 178.953736 
L 33.28788 178.713424 
L 47.183276 177.577445 
L 56.135877 177.085887 
L 66.078315 176.765234 
L 73.948118 176.725678 
L 79.799907 176.901284 
L 84.175567 177.22602 
L 85.862443 177.41041 
L 85.862443 177.41041 
" style="fill:none;stroke:#000000;stroke-linecap:square;stroke-width:1.2;"/>
   </g>
   <g id="line2d_2">
    <path clip-path="url(#pbf5214d4c6)" d="M 85.254908 140.890891 
L 79.572365 140.230237 
L 71.086975 139.459722 
L 60.433637 138.74327 
L 48.367394 138.149819 
L 41.028396 137.987268 
L 36.487833 138.097774 
L 33.190852 138.410842 
L 30.988203 138.838937 
L 29.520266 139.307227 
L 28.161502 139.995612 
L 27.311096 140.726213 
L 27.019457 141.25036 
L 27.07003 141.592499 
L 27.301623 141.809148 
L 27.727048 141.975632 
L 28.832228 142.124929 
L 31.090572 142.137117 
L 36.637891 141.848037 
L 47.083469 141.30647 
L 56.791261 141.052767 
L 67.740121 141.010172 
L 78.845521 141.186084 
L 85.272737 141.279769 
L 85.272737 141.279769 
" style="fill:none;stroke:#000000;stroke-linecap:square;stroke-width:1.2;"/>
   </g>
   <g id="line2d_3">
    <path clip-path="url(#pbf5214d4c6)" d="M 85.872234 104.76123 
L 76.855969 102.66378 
L 66.932401 100.403626 
L 60.792835 99.246968 
L 55.598069 98.511852 
L 51.297757 98.119018 
L 47.161148 97.964075 
L 43.492265 98.04849 
L 40.199429 98.346509 
L 37.465454 98.799631 
L 34.943979 99.437478 
L 32.781491 100.215091 
L 30.964713 101.104139 
L 29.627622 101.96324 
L 28.518236 102.887486 
L 27.633247 103.890268 
L 27.128416 104.84701 
L 27.110295 105.361522 
L 27.355604 105.71323 
L 27.826856 105.977597 
L 29.250398 106.34908 
L 31.955933 106.679055 
L 36.031007 106.884316 
L 41.545246 106.894859 
L 48.19692 106.671029 
L 59.355858 106.035623 
L 74.892962 105.183137 
L 82.22172 104.972172 
L 85.348153 105.009048 
L 85.857802 105.060355 
L 85.857802 105.060355 
" style="fill:none;stroke:#000000;stroke-linecap:square;stroke-width:1.2;"/>
   </g>
   <g id="line2d_4">
    <path clip-path="url(#pbf5214d4c6)" d="M 85.673086 68.544 
L 82.771447 67.952807 
L 76.807033 66.492397 
L 65.024535 63.562898 
L 59.970026 62.561261 
L 56.084663 62.002334 
L 52.546443 61.694451 
L 48.612479 61.606705 
L 45.174801 61.766273 
L 42.292305 62.080457 
L 38.852052 62.688867 
L 35.581969 63.537163 
L 32.993203 64.443549 
L 31.007941 65.334829 
L 29.463065 66.21254 
L 28.259082 67.103899 
L 27.558858 67.818442 
L 27.162943 68.437655 
L 26.996301 69.016234 
L 27.030524 69.525463 
L 27.242548 70.018644 
L 27.688133 70.52963 
L 28.398704 71.018629 
L 29.767893 71.607343 
L 31.308551 72.044884 
L 34.012865 72.551617 
L 37.480802 72.943937 
L 42.194231 73.215217 
L 48.164714 73.291451 
L 54.269599 73.150788 
L 60.820259 72.773922 
L 65.836504 72.305269 
L 71.949013 71.487716 
L 77.744737 70.456719 
L 85.663398 68.899204 
L 85.663398 68.899204 
" style="fill:none;stroke:#000000;stroke-linecap:square;stroke-width:1.2;"/>
   </g>
   <g id="line2d_5">
    <path clip-path="url(#pbf5214d4c6)" d="M 158.533914 177.465316 
L 156.623709 177.034648 
L 149.910577 175.255781 
L 139.488224 172.492866 
L 133.614981 171.184684 
L 129.584086 170.478447 
L 125.213403 169.940846 
L 121.541139 169.70427 
L 117.820134 169.694723 
L 114.295957 169.933472 
L 111.68188 170.296307 
L 108.885808 170.902769 
L 106.489289 171.656823 
L 104.477395 172.522292 
L 102.949748 173.385632 
L 101.763405 174.243188 
L 100.910079 175.021758 
L 99.959617 176.208215 
L 99.557296 177.016587 
L 99.429869 177.794324 
L 99.528962 178.186 
L 99.813 178.568018 
L 100.286034 178.898273 
L 101.596855 179.406564 
L 103.266407 179.805576 
L 106.237126 180.271672 
L 110.620729 180.680174 
L 115.747924 180.894831 
L 120.61883 180.897915 
L 126.847605 180.666646 
L 134.186872 180.124523 
L 142.284149 179.295608 
L 155.261072 177.918891 
L 158.509793 177.785162 
L 158.509793 177.785162 
" style="fill:none;stroke:#000000;stroke-linecap:square;stroke-width:1.2;"/>
   </g>
   <g id="line2d_6">
    <path clip-path="url(#pbf5214d4c6)" d="M 158.483441 141.080433 
L 157.10203 140.879938 
L 144.728344 139.05096 
L 138.734256 138.392914 
L 132.574379 137.946289 
L 126.3841 137.744938 
L 120.875948 137.778108 
L 115.714431 138.00337 
L 110.960894 138.40643 
L 107.092747 138.918215 
L 103.905269 139.5318 
L 101.657064 140.161074 
L 100.32114 140.732891 
L 99.753937 141.181119 
L 99.658178 141.525253 
L 99.785679 141.804822 
L 100.149877 142.103588 
L 100.966229 142.425742 
L 102.576571 142.742845 
L 105.47152 143.009167 
L 109.834501 143.149579 
L 116.672335 143.119972 
L 128.08673 142.812211 
L 143.551032 142.16296 
L 158.466011 141.467733 
L 158.466011 141.467733 
" style="fill:none;stroke:#000000;stroke-linecap:square;stroke-width:1.2;"/>
   </g>
   <g id="line2d_7">
    <path clip-path="url(#pbf5214d4c6)" d="M 158.299841 104.860878 
L 156.622013 104.53459 
L 148.035001 102.923768 
L 141.735488 101.950844 
L 136.234731 101.291442 
L 130.795809 100.842948 
L 125.652141 100.622469 
L 120.418721 100.614759 
L 115.244626 100.842465 
L 110.609044 101.285168 
L 107.066833 101.830904 
L 104.645297 102.361183 
L 102.744898 102.926072 
L 101.127613 103.606188 
L 100.129535 104.258702 
L 99.692545 104.752751 
L 99.514286 105.208221 
L 99.528157 105.671867 
L 99.720132 106.170963 
L 100.111797 106.7302 
L 100.823056 107.409443 
L 101.889874 108.139667 
L 103.764091 109.069696 
L 106.106026 109.907583 
L 108.913225 110.617361 
L 111.857594 111.106456 
L 114.968265 111.391001 
L 118.006489 111.470766 
L 121.680394 111.340874 
L 125.475789 110.985953 
L 130.220921 110.291595 
L 135.889683 109.208835 
L 151.574265 106.048716 
L 155.555526 105.519962 
L 158.236651 105.338587 
L 158.236651 105.338587 
" style="fill:none;stroke:#000000;stroke-linecap:square;stroke-width:1.2;"/>
   </g>
   <g id="line2d_8">
    <path clip-path="url(#pbf5214d4c6)" d="M 157.84496 68.612864 
L 155.304166 68.29908 
L 142.321148 66.715031 
L 134.495412 65.995437 
L 128.713138 65.660293 
L 122.284623 65.514446 
L 116.67524 65.600508 
L 111.871006 65.869272 
L 107.668494 66.315007 
L 104.498273 66.861528 
L 102.430162 67.394234 
L 101.025375 67.918902 
L 100.10475 68.454125 
L 99.758291 68.91033 
L 99.813632 69.148856 
L 100.136622 69.384736 
L 100.766975 69.560537 
L 102.286219 69.706642 
L 105.422812 69.714743 
L 110.957254 69.47793 
L 137.832599 68.096676 
L 144.892254 68.01342 
L 150.223936 68.173327 
L 154.188504 68.496537 
L 156.891547 68.882296 
L 157.695914 69.062019 
L 157.695914 69.062019 
" style="fill:none;stroke:#000000;stroke-linecap:square;stroke-width:1.2;"/>
   </g>
   <g id="line2d_9">
    <path clip-path="url(#pbf5214d4c6)" d="M 230.406932 177.334477 
L 220.569776 175.262906 
L 215.070765 174.405283 
L 209.424102 173.746943 
L 203.780932 173.314776 
L 197.764703 173.094888 
L 191.945038 173.122493 
L 186.925495 173.37016 
L 182.653696 173.808278 
L 179.484954 174.338327 
L 176.807947 175.002092 
L 174.506701 175.840417 
L 173.018687 176.644598 
L 172.303336 177.252966 
L 172.117438 177.702582 
L 172.249949 177.975674 
L 172.558803 178.196277 
L 173.149581 178.372044 
L 174.481422 178.432535 
L 176.304359 178.267829 
L 179.911237 177.680438 
L 187.663003 176.34989 
L 191.736352 175.858556 
L 196.00302 175.546694 
L 201.090323 175.42579 
L 205.803419 175.520166 
L 211.28043 175.831505 
L 218.328651 176.473943 
L 230.399229 177.845482 
L 230.399229 177.845482 
" style="fill:none;stroke:#000000;stroke-linecap:square;stroke-width:1.2;"/>
   </g>
   <g id="line2d_10">
    <path clip-path="url(#pbf5214d4c6)" d="M 230.495993 140.871921 
L 214.518311 137.571552 
L 209.306982 136.759935 
L 204.17304 136.182008 
L 199.132838 135.846603 
L 193.978271 135.738746 
L 189.440865 135.848478 
L 185.308843 136.148013 
L 181.852908 136.59795 
L 179.478723 137.059934 
L 177.091722 137.715556 
L 175.165583 138.468167 
L 173.707004 139.27593 
L 172.762362 140.023544 
L 172.124207 140.827863 
L 171.965227 141.369422 
L 172.101702 141.750835 
L 172.381436 141.973191 
L 172.955965 142.200148 
L 174.580104 142.514787 
L 177.457634 142.790436 
L 182.316343 142.981361 
L 187.685739 142.959871 
L 193.663821 142.701831 
L 199.730999 142.220106 
L 209.026316 141.213875 
L 217.110344 140.401489 
L 221.023011 140.208725 
L 223.948271 140.244434 
L 226.507767 140.451341 
L 229.322035 140.92401 
L 230.420954 141.242947 
L 230.420954 141.242947 
" style="fill:none;stroke:#000000;stroke-linecap:square;stroke-width:1.2;"/>
   </g>
   <g id="line2d_11">
    <path clip-path="url(#pbf5214d4c6)" d="M 231.032799 104.86785 
L 229.573836 104.56953 
L 212.05647 100.684321 
L 207.778784 100.033639 
L 203.259271 99.559407 
L 199.006578 99.328364 
L 195.014763 99.306452 
L 190.718901 99.498217 
L 186.521793 99.913276 
L 182.602445 100.532041 
L 179.400983 101.24619 
L 176.699028 102.057978 
L 174.879643 102.779812 
L 173.287848 103.6467 
L 172.47445 104.326302 
L 172.13333 104.861243 
L 172.103019 105.38767 
L 172.291613 105.771062 
L 172.718779 106.178724 
L 173.519703 106.619797 
L 175.455436 107.261098 
L 178.019811 107.82516 
L 182.026598 108.444937 
L 186.774809 108.939161 
L 191.945514 109.248987 
L 197.082926 109.333638 
L 202.440191 109.175637 
L 207.079797 108.825349 
L 211.795821 108.262502 
L 216.860791 107.436344 
L 223.941937 106.013416 
L 228.130622 105.272862 
L 229.935647 105.135621 
L 231.056752 105.274656 
L 231.056752 105.274656 
" style="fill:none;stroke:#000000;stroke-linecap:square;stroke-width:1.2;"/>
   </g>
   <g id="line2d_12">
    <path clip-path="url(#pbf5214d4c6)" d="M 231.009166 68.687014 
L 229.268337 68.591645 
L 224.549119 68.094434 
L 217.854297 67.139538 
L 205.845319 65.140322 
L 197.549125 63.845657 
L 192.271923 63.235686 
L 188.242505 62.984209 
L 184.829911 62.993006 
L 182.167369 63.199147 
L 179.641506 63.617914 
L 177.523451 64.201028 
L 175.93692 64.833727 
L 174.406563 65.681415 
L 173.245949 66.582229 
L 172.471564 67.441907 
L 171.981119 68.387187 
L 171.90911 68.931231 
L 172.006005 69.417625 
L 172.44096 70.154691 
L 173.055284 70.777856 
L 174.048544 71.502296 
L 175.956962 72.502892 
L 177.851003 73.238181 
L 179.829813 73.83489 
L 183.159297 74.555667 
L 186.64359 75.019017 
L 189.898835 75.23865 
L 193.93646 75.279793 
L 198.202065 75.101535 
L 203.701484 74.619165 
L 209.683695 73.861049 
L 216.188423 72.819211 
L 221.532189 71.773223 
L 226.641868 70.531016 
L 229.115669 69.79722 
L 231.043 69.103545 
L 231.043 69.103545 
" style="fill:none;stroke:#000000;stroke-linecap:square;stroke-width:1.2;"/>
   </g>
   <g id="line2d_13">
    <path clip-path="url(#pbf5214d4c6)" d="M 303.085656 177.019032 
L 300.213389 176.245908 
L 295.013223 175.113644 
L 289.532266 174.16579 
L 283.958128 173.427962 
L 278.004535 172.870063 
L 271.797261 172.516087 
L 265.883076 172.390049 
L 260.468735 172.492422 
L 256.543819 172.756371 
L 253.305909 173.166898 
L 250.775337 173.686696 
L 248.452254 174.430895 
L 246.944381 175.16234 
L 245.692002 176.075439 
L 245.025537 176.828944 
L 244.669976 177.575493 
L 244.719072 177.877908 
L 244.983031 178.003153 
L 245.688219 177.983353 
L 247.710195 177.588375 
L 257.489371 175.440221 
L 262.163659 174.692353 
L 266.77579 174.174391 
L 271.417936 173.860699 
L 276.437774 173.739903 
L 281.558282 173.845825 
L 286.39576 174.171633 
L 290.721216 174.675174 
L 295.120298 175.430499 
L 298.752865 176.261054 
L 303.038075 177.480618 
L 303.038075 177.480618 
" style="fill:none;stroke:#000000;stroke-linecap:square;stroke-width:1.2;"/>
   </g>
   <g id="line2d_14">
    <path clip-path="url(#pbf5214d4c6)" d="M 303.676364 141.160822 
L 301.739857 140.711194 
L 283.663154 136.331858 
L 277.912384 135.277256 
L 273.092455 134.61379 
L 268.314879 134.192685 
L 263.8213 134.049651 
L 260.655281 134.125275 
L 257.339728 134.398822 
L 254.438956 134.84873 
L 251.958916 135.446883 
L 249.799608 136.19865 
L 248.225684 136.948973 
L 246.824055 137.844161 
L 245.82529 138.700818 
L 244.772269 140.045233 
L 244.422003 140.875008 
L 244.380376 141.547543 
L 244.628298 142.062402 
L 245.031678 142.410518 
L 245.807843 142.81465 
L 247.756813 143.457934 
L 250.960029 144.158242 
L 254.979719 144.747212 
L 259.515026 145.150035 
L 264.207873 145.323238 
L 268.654453 145.278951 
L 273.048542 145.050486 
L 278.891803 144.494635 
L 285.301282 143.630726 
L 297.940543 141.81863 
L 301.665393 141.555558 
L 303.675494 141.56668 
L 303.675494 141.56668 
" style="fill:none;stroke:#000000;stroke-linecap:square;stroke-width:1.2;"/>
   </g>
   <g id="line2d_15">
    <path clip-path="url(#pbf5214d4c6)" d="M 303.488059 104.76258 
L 300.483536 103.711344 
L 290.80776 100.485312 
L 284.595536 98.641662 
L 279.335324 97.335162 
L 274.910906 96.488098 
L 270.798607 95.957971 
L 267.31028 95.736637 
L 264.282389 95.739706 
L 261.814764 95.894606 
L 258.727299 96.310816 
L 256.107637 96.892519 
L 253.522055 97.718947 
L 251.320969 98.670216 
L 249.472621 99.695888 
L 247.722091 100.922936 
L 246.345524 102.137532 
L 245.310202 103.289663 
L 244.510305 104.540126 
L 244.324451 105.155427 
L 244.408429 105.681928 
L 244.707461 106.068514 
L 245.377272 106.522663 
L 246.482352 107.000961 
L 248.417922 107.571859 
L 251.153143 108.113278 
L 254.615139 108.535479 
L 258.518181 108.757428 
L 262.474382 108.759742 
L 266.115423 108.593649 
L 271.149788 108.147125 
L 278.165847 107.245915 
L 289.35577 105.747184 
L 294.772713 105.266254 
L 299.945087 105.046396 
L 303.013131 105.070658 
L 303.46494 105.118908 
L 303.46494 105.118908 
" style="fill:none;stroke:#000000;stroke-linecap:square;stroke-width:1.2;"/>
   </g>
   <g id="line2d_16">
    <path clip-path="url(#pbf5214d4c6)" d="M 302.502509 68.716821 
L 300.480236 68.532298 
L 272.392415 65.631589 
L 265.623403 65.262486 
L 260.145452 65.170655 
L 255.927736 65.296361 
L 252.614066 65.588957 
L 249.948319 66.025448 
L 247.892522 66.565718 
L 246.332107 67.188853 
L 245.14685 67.942989 
L 244.720146 68.418781 
L 244.55635 68.920209 
L 244.664531 69.316178 
L 244.896255 69.611509 
L 245.441852 70.007507 
L 246.452265 70.454469 
L 248.360673 70.981194 
L 251.068488 71.437052 
L 254.172173 71.728631 
L 258.114504 71.854434 
L 262.437125 71.749728 
L 266.833506 71.442265 
L 273.564788 70.72346 
L 284.089912 69.544268 
L 289.522303 69.161781 
L 294.798723 69.014967 
L 301.370294 69.077089 
L 302.452037 69.111306 
L 302.452037 69.111306 
" style="fill:none;stroke:#000000;stroke-linecap:square;stroke-width:1.2;"/>
   </g>
   <g id="text_1">
    <!-- B$\acute{e}$zier-GAN -->
    <defs>
     <path d="M 19.671875 34.8125 
L 19.671875 8.109375 
L 35.5 8.109375 
Q 43.453125 8.109375 47.28125 11.40625 
Q 51.125 14.703125 51.125 21.484375 
Q 51.125 28.328125 47.28125 31.5625 
Q 43.453125 34.8125 35.5 34.8125 
z
M 19.671875 64.796875 
L 19.671875 42.828125 
L 34.28125 42.828125 
Q 41.5 42.828125 45.03125 45.53125 
Q 48.578125 48.25 48.578125 53.8125 
Q 48.578125 59.328125 45.03125 62.0625 
Q 41.5 64.796875 34.28125 64.796875 
z
M 9.8125 72.90625 
L 35.015625 72.90625 
Q 46.296875 72.90625 52.390625 68.21875 
Q 58.5 63.53125 58.5 54.890625 
Q 58.5 48.1875 55.375 44.234375 
Q 52.25 40.28125 46.1875 39.3125 
Q 53.46875 37.75 57.5 32.78125 
Q 61.53125 27.828125 61.53125 20.40625 
Q 61.53125 10.640625 54.890625 5.3125 
Q 48.25 0 35.984375 0 
L 9.8125 0 
z
" id="DejaVuSans-66"/>
     <path d="M -18.3125 79.984375 
L -8.59375 79.984375 
L -24.515625 61.625 
L -31.984375 61.625 
z
M -25 56 
z
" id="DejaVuSans-769"/>
     <path d="M 48.09375 32.234375 
Q 48.25 33.015625 48.3125 33.84375 
Q 48.390625 34.671875 48.390625 35.5 
Q 48.390625 41.453125 44.890625 44.921875 
Q 41.40625 48.390625 35.40625 48.390625 
Q 28.71875 48.390625 23.578125 44.15625 
Q 18.453125 39.9375 15.828125 32.171875 
z
M 55.90625 25.203125 
L 14.109375 25.203125 
Q 13.8125 23.34375 13.71875 22.265625 
Q 13.625 21.1875 13.625 20.40625 
Q 13.625 13.625 17.796875 9.90625 
Q 21.96875 6.203125 29.59375 6.203125 
Q 35.453125 6.203125 40.671875 7.515625 
Q 45.90625 8.84375 50.390625 11.375 
L 48.6875 2.484375 
Q 43.84375 0.53125 38.6875 -0.4375 
Q 33.546875 -1.421875 28.21875 -1.421875 
Q 16.84375 -1.421875 10.71875 4.015625 
Q 4.59375 9.46875 4.59375 19.484375 
Q 4.59375 28.03125 7.640625 35.375 
Q 10.6875 42.71875 16.609375 48.484375 
Q 20.40625 52.09375 25.65625 54.046875 
Q 30.90625 56 36.8125 56 
Q 46.09375 56 51.578125 50.4375 
Q 57.078125 44.875 57.078125 35.5 
Q 57.078125 33.25 56.78125 30.6875 
Q 56.5 28.125 55.90625 25.203125 
z
" id="DejaVuSans-Oblique-101"/>
     <path d="M 5.515625 54.6875 
L 48.1875 54.6875 
L 48.1875 46.484375 
L 14.40625 7.171875 
L 48.1875 7.171875 
L 48.1875 0 
L 4.296875 0 
L 4.296875 8.203125 
L 38.09375 47.515625 
L 5.515625 47.515625 
z
" id="DejaVuSans-122"/>
     <path d="M 9.421875 54.6875 
L 18.40625 54.6875 
L 18.40625 0 
L 9.421875 0 
z
M 9.421875 75.984375 
L 18.40625 75.984375 
L 18.40625 64.59375 
L 9.421875 64.59375 
z
" id="DejaVuSans-105"/>
     <path d="M 56.203125 29.59375 
L 56.203125 25.203125 
L 14.890625 25.203125 
Q 15.484375 15.921875 20.484375 11.0625 
Q 25.484375 6.203125 34.421875 6.203125 
Q 39.59375 6.203125 44.453125 7.46875 
Q 49.3125 8.734375 54.109375 11.28125 
L 54.109375 2.78125 
Q 49.265625 0.734375 44.1875 -0.34375 
Q 39.109375 -1.421875 33.890625 -1.421875 
Q 20.796875 -1.421875 13.15625 6.1875 
Q 5.515625 13.8125 5.515625 26.8125 
Q 5.515625 40.234375 12.765625 48.109375 
Q 20.015625 56 32.328125 56 
Q 43.359375 56 49.78125 48.890625 
Q 56.203125 41.796875 56.203125 29.59375 
z
M 47.21875 32.234375 
Q 47.125 39.59375 43.09375 43.984375 
Q 39.0625 48.390625 32.421875 48.390625 
Q 24.90625 48.390625 20.390625 44.140625 
Q 15.875 39.890625 15.1875 32.171875 
z
" id="DejaVuSans-101"/>
     <path d="M 41.109375 46.296875 
Q 39.59375 47.171875 37.8125 47.578125 
Q 36.03125 48 33.890625 48 
Q 26.265625 48 22.1875 43.046875 
Q 18.109375 38.09375 18.109375 28.8125 
L 18.109375 0 
L 9.078125 0 
L 9.078125 54.6875 
L 18.109375 54.6875 
L 18.109375 46.1875 
Q 20.953125 51.171875 25.484375 53.578125 
Q 30.03125 56 36.53125 56 
Q 37.453125 56 38.578125 55.875 
Q 39.703125 55.765625 41.0625 55.515625 
z
" id="DejaVuSans-114"/>
     <path d="M 4.890625 31.390625 
L 31.203125 31.390625 
L 31.203125 23.390625 
L 4.890625 23.390625 
z
" id="DejaVuSans-45"/>
     <path d="M 59.515625 10.40625 
L 59.515625 29.984375 
L 43.40625 29.984375 
L 43.40625 38.09375 
L 69.28125 38.09375 
L 69.28125 6.78125 
Q 63.578125 2.734375 56.6875 0.65625 
Q 49.8125 -1.421875 42 -1.421875 
Q 24.90625 -1.421875 15.25 8.5625 
Q 5.609375 18.5625 5.609375 36.375 
Q 5.609375 54.25 15.25 64.234375 
Q 24.90625 74.21875 42 74.21875 
Q 49.125 74.21875 55.546875 72.453125 
Q 61.96875 70.703125 67.390625 67.28125 
L 67.390625 56.78125 
Q 61.921875 61.421875 55.765625 63.765625 
Q 49.609375 66.109375 42.828125 66.109375 
Q 29.4375 66.109375 22.71875 58.640625 
Q 16.015625 51.171875 16.015625 36.375 
Q 16.015625 21.625 22.71875 14.15625 
Q 29.4375 6.6875 42.828125 6.6875 
Q 48.046875 6.6875 52.140625 7.59375 
Q 56.25 8.5 59.515625 10.40625 
z
" id="DejaVuSans-71"/>
     <path d="M 34.1875 63.1875 
L 20.796875 26.90625 
L 47.609375 26.90625 
z
M 28.609375 72.90625 
L 39.796875 72.90625 
L 67.578125 0 
L 57.328125 0 
L 50.6875 18.703125 
L 17.828125 18.703125 
L 11.1875 0 
L 0.78125 0 
z
" id="DejaVuSans-65"/>
     <path d="M 9.8125 72.90625 
L 23.09375 72.90625 
L 55.421875 11.921875 
L 55.421875 72.90625 
L 64.984375 72.90625 
L 64.984375 0 
L 51.703125 0 
L 19.390625 60.984375 
L 19.390625 0 
L 9.8125 0 
z
" id="DejaVuSans-78"/>
    </defs>
    <g transform="translate(124.2 25.92)scale(0.144 -0.144)">
     <use transform="translate(0 0.515625)" xlink:href="#DejaVuSans-66"/>
     <use transform="translate(126.96875 13.015625)" xlink:href="#DejaVuSans-769"/>
     <use transform="translate(68.603516 0.515625)" xlink:href="#DejaVuSans-Oblique-101"/>
     <use transform="translate(130.126953 0.515625)" xlink:href="#DejaVuSans-122"/>
     <use transform="translate(182.617188 0.515625)" xlink:href="#DejaVuSans-105"/>
     <use transform="translate(210.400391 0.515625)" xlink:href="#DejaVuSans-101"/>
     <use transform="translate(271.923828 0.515625)" xlink:href="#DejaVuSans-114"/>
     <use transform="translate(313.037109 0.515625)" xlink:href="#DejaVuSans-45"/>
     <use transform="translate(349.121094 0.515625)" xlink:href="#DejaVuSans-71"/>
     <use transform="translate(426.611328 0.515625)" xlink:href="#DejaVuSans-65"/>
     <use transform="translate(495.019531 0.515625)" xlink:href="#DejaVuSans-78"/>
    </g>
   </g>
  </g>
  <g id="axes_2">
   <g id="line2d_17">
    <path clip-path="url(#pb49771fc8b)" d="M 403.715357 180.838891 
L 402.189398 180.099092 
L 397.689341 177.609971 
L 395.119468 176.478602 
L 392.503624 175.524895 
L 389.864633 174.769494 
L 387.202821 174.226335 
L 384.519611 173.880485 
L 381.150956 173.691798 
L 377.779321 173.737174 
L 373.739859 174.048089 
L 368.394891 174.742066 
L 349.172544 177.725405 
L 347.119083 178.235072 
L 345.883086 178.733896 
L 345.322761 179.134508 
L 344.957813 179.667673 
L 344.718332 180.263783 
L 344.778519 180.606479 
L 345.003174 180.987956 
L 345.342904 181.314097 
L 345.871947 181.605311 
L 347.113604 181.952086 
L 349.612905 182.228537 
L 353.90173 182.471383 
L 362.163297 182.696915 
L 366.643296 182.560574 
L 371.112378 182.168703 
L 376.221688 181.482599 
L 388.933978 179.624461 
L 392.101213 179.452306 
L 395.264088 179.528701 
L 398.413791 179.881374 
L 401.615428 180.5291 
L 403.72127 180.990905 
L 403.72127 180.990905 
" style="fill:none;stroke:#000000;stroke-linecap:square;stroke-width:1.2;"/>
   </g>
   <g id="line2d_18">
    <path clip-path="url(#pb49771fc8b)" d="M 405.40671 144.691587 
L 405.576711 144.500082 
L 405.282023 144.296756 
L 403.608725 144.160958 
L 400.401002 144.163769 
L 395.692487 144.383216 
L 388.807315 144.745308 
L 384.62419 144.752962 
L 381.106823 144.552506 
L 376.845997 144.064542 
L 371.102905 143.111771 
L 365.334552 142.197516 
L 361.109484 141.767568 
L 357.728749 141.641675 
L 354.401553 141.75743 
L 351.749294 142.048001 
L 349.044868 142.581353 
L 347.002465 143.17028 
L 345.644425 143.672936 
L 344.68037 144.352646 
L 344.323636 144.894408 
L 344.755088 145.069654 
L 345.004643 145.01056 
L 345.680266 144.407953 
L 346.273526 143.946317 
L 347.151818 143.509226 
L 348.875874 142.909486 
L 351.482421 142.287847 
L 353.477253 142.00422 
L 356.154029 141.881404 
L 358.855128 142.006416 
L 362.284026 142.474319 
L 367.986365 143.57865 
L 374.717359 144.81467 
L 378.489188 145.29563 
L 382.270245 145.526476 
L 385.296974 145.494394 
L 389.0742 145.20631 
L 395.850628 144.357016 
L 399.524777 143.994856 
L 402.39821 143.893491 
L 405.105464 143.98075 
L 405.609994 144.148682 
L 405.572802 144.580683 
L 405.382946 144.843601 
L 405.382946 144.843601 
" style="fill:none;stroke:#000000;stroke-linecap:square;stroke-width:1.2;"/>
   </g>
   <g id="line2d_19">
    <path clip-path="url(#pb49771fc8b)" d="M 403.982935 108.920245 
L 402.14799 108.234842 
L 399.697974 107.42412 
L 397.146868 106.821612 
L 393.8935 106.300158 
L 390.597929 106.026327 
L 387.27462 105.976783 
L 383.255512 106.147182 
L 377.875483 106.616399 
L 363.171417 108.06061 
L 357.268891 108.316407 
L 350.896659 108.356202 
L 347.357359 108.422426 
L 345.295549 108.665854 
L 344.629361 108.895836 
L 344.420452 109.191928 
L 346.852899 109.607346 
L 351.564765 109.759021 
L 364.778429 109.933481 
L 368.812931 109.605902 
L 372.868315 109.03996 
L 377.608775 108.146155 
L 387.063245 106.270574 
L 389.758355 105.990717 
L 392.445085 105.948276 
L 394.449987 106.102125 
L 396.444221 106.426964 
L 399.072229 107.10624 
L 401.60796 108.016546 
L 403.984785 109.072259 
L 403.984785 109.072259 
" style="fill:none;stroke:#000000;stroke-linecap:square;stroke-width:1.2;"/>
   </g>
   <g id="line2d_20">
    <path clip-path="url(#pb49771fc8b)" d="M 404.350104 72.908074 
L 402.290889 71.197257 
L 400.434419 70.3413 
L 397.840245 69.414934 
L 394.500549 68.472545 
L 391.097282 67.755267 
L 386.260557 66.978826 
L 373.603588 65.131556 
L 365.893815 63.939311 
L 362.43387 63.643494 
L 359.707469 63.612575 
L 357.028097 63.814877 
L 354.374429 64.297873 
L 351.749093 65.077095 
L 349.838401 65.843705 
L 348.054795 66.79633 
L 346.989983 67.559022 
L 346.073415 68.426442 
L 345.350901 69.413601 
L 344.931758 70.502993 
L 344.517729 71.775815 
L 344.456958 72.245625 
L 344.902473 73.071809 
L 346.245424 74.252175 
L 347.011148 74.663602 
L 347.922414 74.925753 
L 349.520557 75.075811 
L 351.917368 74.989562 
L 355.655179 74.562375 
L 361.385382 73.669328 
L 367.334199 72.537615 
L 374.175098 71.019625 
L 383.222559 68.981217 
L 386.73414 68.450224 
L 389.562154 68.275467 
L 391.693469 68.332431 
L 393.825328 68.571689 
L 395.949948 69.003461 
L 398.061898 69.623588 
L 400.127827 70.435748 
L 402.053314 71.451058 
L 403.814816 72.689578 
L 404.361026 73.060088 
L 404.361026 73.060088 
" style="fill:none;stroke:#000000;stroke-linecap:square;stroke-width:1.2;"/>
   </g>
   <g id="line2d_21">
    <path clip-path="url(#pb49771fc8b)" d="M 476.340836 180.645441 
L 474.978185 179.546843 
L 473.920759 178.816503 
L 471.419259 177.488377 
L 468.178603 176.007409 
L 464.198583 174.427078 
L 460.839006 173.328972 
L 457.444362 172.467935 
L 454.027366 171.844985 
L 450.591191 171.473116 
L 447.135533 171.3552 
L 443.673167 171.473315 
L 440.228278 171.799833 
L 436.138668 172.423358 
L 432.119724 173.257144 
L 427.552714 174.456769 
L 423.142652 175.854519 
L 420.898797 176.765283 
L 419.018223 177.793016 
L 417.861885 178.677548 
L 416.996415 179.823799 
L 416.813573 180.207576 
L 416.82995 180.681606 
L 417.12645 181.100179 
L 417.623742 181.359821 
L 418.395162 181.498119 
L 420.066724 181.380539 
L 421.610957 180.962256 
L 428.671241 178.300159 
L 431.854727 177.480336 
L 434.415823 177.014227 
L 436.99302 176.744426 
L 439.589118 176.674626 
L 442.208438 176.794564 
L 445.512694 177.182939 
L 448.820478 177.803598 
L 452.76917 178.777001 
L 461.233291 180.9834 
L 463.816246 181.418846 
L 466.376967 181.65001 
L 468.911841 181.657671 
L 472.058223 181.397689 
L 476.318226 180.797455 
L 476.318226 180.797455 
" style="fill:none;stroke:#000000;stroke-linecap:square;stroke-width:1.2;"/>
   </g>
   <g id="line2d_22">
    <path clip-path="url(#pb49771fc8b)" d="M 476.940058 144.854376 
L 476.371566 143.522746 
L 476.064444 143.095237 
L 474.994399 142.337619 
L 473.161277 141.392035 
L 471.219392 140.64743 
L 468.531215 139.89837 
L 466.47039 139.52355 
L 463.672782 139.272851 
L 460.826827 139.241721 
L 456.492734 139.464864 
L 446.192276 140.145304 
L 441.752656 140.179276 
L 436.631789 139.984772 
L 428.204924 139.583274 
L 424.834418 139.697462 
L 422.208672 139.993658 
L 420.378951 140.358528 
L 418.767598 140.895878 
L 417.885424 141.372816 
L 417.162362 141.958354 
L 416.939259 142.332866 
L 416.619891 143.971186 
L 416.874681 145.142035 
L 417.176214 145.599127 
L 418.197532 146.460301 
L 419.377545 147.190297 
L 421.139033 147.975011 
L 422.943281 148.521271 
L 425.422963 149.017948 
L 428.621669 149.417691 
L 433.193248 149.756536 
L 437.895936 149.886248 
L 442.062708 149.801653 
L 446.318029 149.519558 
L 450.585393 148.997196 
L 454.14271 148.352642 
L 458.407888 147.323191 
L 468.296675 144.764657 
L 471.059726 144.318439 
L 473.768717 144.116875 
L 475.700905 144.160276 
L 476.453045 144.335165 
L 476.845169 144.760017 
L 476.934899 145.00639 
L 476.934899 145.00639 
" style="fill:none;stroke:#000000;stroke-linecap:square;stroke-width:1.2;"/>
   </g>
   <g id="line2d_23">
    <path clip-path="url(#pb49771fc8b)" d="M 476.294996 108.809544 
L 472.631869 106.879305 
L 470.114188 105.996685 
L 466.882306 105.080615 
L 463.60774 104.351973 
L 460.294546 103.840179 
L 456.947324 103.598082 
L 454.249001 103.603397 
L 451.534277 103.791922 
L 448.118678 104.275302 
L 444.687327 104.999955 
L 439.895385 106.282692 
L 431.148453 108.698609 
L 427.911058 109.378819 
L 424.776964 109.783456 
L 421.800132 109.918793 
L 416.448828 109.939051 
L 416.682335 109.725917 
L 417.912798 109.11344 
L 419.214733 108.33139 
L 420.868802 107.640413 
L 423.415059 106.904565 
L 426.058152 106.395444 
L 429.396132 106.028669 
L 434.12163 105.780853 
L 451.48483 105.299365 
L 459.795163 105.210501 
L 463.912652 105.405222 
L 467.295162 105.805101 
L 469.959761 106.32533 
L 473.204419 107.21809 
L 474.972266 107.851349 
L 475.721288 108.388544 
L 476.268407 108.961558 
L 476.268407 108.961558 
" style="fill:none;stroke:#000000;stroke-linecap:square;stroke-width:1.2;"/>
   </g>
   <g id="line2d_24">
    <path clip-path="url(#pb49771fc8b)" d="M 475.935928 72.562061 
L 474.445997 71.161045 
L 469.775851 67.630869 
L 466.250891 65.317856 
L 462.698267 63.241423 
L 459.710401 61.774487 
L 457.297123 60.83553 
L 454.855846 60.101805 
L 452.388959 59.56163 
L 449.277075 59.122906 
L 446.151414 58.89766 
L 443.015376 58.859951 
L 439.877743 59.014323 
L 436.745453 59.376063 
L 433.615808 59.991752 
L 431.10488 60.695589 
L 428.578381 61.64664 
L 426.011295 62.899994 
L 424.029907 64.099313 
L 421.980935 65.604091 
L 419.164605 68.040926 
L 417.886405 69.466796 
L 417.292941 70.264183 
L 416.912689 70.980991 
L 416.923971 71.626747 
L 417.384464 72.035812 
L 418.109255 72.238548 
L 420.039689 72.388441 
L 421.745247 72.310248 
L 424.523352 71.889307 
L 430.658561 70.909746 
L 435.512569 70.435888 
L 439.13198 70.329224 
L 442.13942 70.438013 
L 445.145083 70.74303 
L 448.762258 71.355062 
L 453.00615 72.322738 
L 459.126854 73.734791 
L 461.585858 74.067382 
L 464.057659 74.173048 
L 466.548193 74.037066 
L 469.673054 73.589175 
L 473.475348 73.014092 
L 475.932032 72.714075 
L 475.932032 72.714075 
" style="fill:none;stroke:#000000;stroke-linecap:square;stroke-width:1.2;"/>
   </g>
   <g id="line2d_25">
    <path clip-path="url(#pb49771fc8b)" d="M 548.490032 180.54495 
L 548.014883 179.303922 
L 547.237615 178.035029 
L 546.166541 176.869537 
L 544.43464 175.268638 
L 542.004934 173.37773 
L 539.511983 171.721374 
L 536.96988 170.287989 
L 534.377752 169.073382 
L 531.7445 168.085744 
L 529.075059 167.32186 
L 526.366918 166.752919 
L 522.937974 166.279282 
L 518.785627 165.984216 
L 514.637108 165.921002 
L 510.53214 166.100465 
L 507.165859 166.475387 
L 504.519173 166.975453 
L 501.894932 167.700732 
L 499.27294 168.699779 
L 497.310908 169.649226 
L 495.402401 170.795939 
L 493.610451 172.176339 
L 492.527151 173.245291 
L 491.057255 175.037471 
L 489.317675 177.967425 
L 488.917166 178.7665 
L 488.846391 179.652493 
L 489.253058 180.440151 
L 489.98072 180.959485 
L 492.120285 181.797295 
L 494.90841 182.645381 
L 497.559657 183.226783 
L 499.953268 183.502694 
L 502.379603 183.528776 
L 504.831971 183.350141 
L 507.915782 182.866078 
L 511.657403 182.030144 
L 521.884646 179.616446 
L 526.395703 178.836395 
L 530.265857 178.397293 
L 534.77136 178.124946 
L 538.622134 178.145463 
L 541.805056 178.388202 
L 544.325006 178.775621 
L 546.766186 179.39029 
L 547.669251 179.834728 
L 548.289439 180.434252 
L 548.474717 180.696964 
L 548.474717 180.696964 
" style="fill:none;stroke:#000000;stroke-linecap:square;stroke-width:1.2;"/>
   </g>
   <g id="line2d_26">
    <path clip-path="url(#pb49771fc8b)" d="M 548.126629 144.735369 
L 544.745736 145.288484 
L 541.472567 145.593711 
L 538.223695 145.693657 
L 534.999993 145.574539 
L 531.792893 145.210106 
L 527.96102 144.545472 
L 515.755684 142.244938 
L 512.508462 141.937869 
L 509.249262 141.864702 
L 505.990575 142.029827 
L 502.108055 142.465296 
L 496.347457 143.369483 
L 493.091501 144.087392 
L 489.732539 145.038989 
L 488.707145 145.533044 
L 488.32779 145.941325 
L 488.566105 146.067146 
L 489.758019 146.042338 
L 509.257775 144.979345 
L 524.203893 144.121752 
L 530.313963 144.040306 
L 535.722007 144.193912 
L 542.400633 144.647165 
L 546.266006 144.833084 
L 548.105842 144.887382 
L 548.105842 144.887382 
" style="fill:none;stroke:#000000;stroke-linecap:square;stroke-width:1.2;"/>
   </g>
   <g id="line2d_27">
    <path clip-path="url(#pb49771fc8b)" d="M 548.564584 108.975041 
L 547.907913 108.628746 
L 547.18434 108.184327 
L 545.298838 107.61358 
L 538.253894 105.919876 
L 517.84348 101.10734 
L 514.194754 100.462876 
L 511.284097 100.11982 
L 508.393716 99.99159 
L 505.53152 100.105129 
L 502.7187 100.467962 
L 499.97634 101.06834 
L 497.284663 101.886521 
L 493.980677 103.150814 
L 491.560966 104.292985 
L 490.066503 105.194262 
L 489.286964 105.803724 
L 488.753494 106.442389 
L 488.514945 107.15116 
L 488.523694 107.91946 
L 488.472662 108.695634 
L 488.676818 109.755963 
L 488.934133 110.127857 
L 489.374242 110.400315 
L 490.41041 110.635073 
L 492.823693 110.667086 
L 496.534366 110.743024 
L 499.067017 110.97704 
L 502.246267 111.523502 
L 506.114342 112.4978 
L 513.502546 114.421075 
L 516.992997 115.071389 
L 519.800582 115.404525 
L 522.611538 115.526107 
L 525.42279 115.40447 
L 528.232274 115.009332 
L 531.042771 114.365382 
L 534.563414 113.296253 
L 546.311091 109.431573 
L 548.339367 109.037466 
L 548.551012 109.127055 
L 548.551012 109.127055 
" style="fill:none;stroke:#000000;stroke-linecap:square;stroke-width:1.2;"/>
   </g>
   <g id="line2d_28">
    <path clip-path="url(#pb49771fc8b)" d="M 548.59861 72.823104 
L 548.340985 71.855137 
L 547.777023 70.836537 
L 546.731341 69.959027 
L 544.941098 68.852155 
L 543.04028 67.959867 
L 540.414689 67.012504 
L 537.724758 66.342015 
L 534.98375 65.899918 
L 530.803442 65.481462 
L 523.733589 64.835473 
L 519.469668 64.195302 
L 515.207717 63.308488 
L 508.171894 61.761877 
L 504.734058 61.274521 
L 502.045486 61.167251 
L 500.03846 61.310019 
L 498.025873 61.683283 
L 496.011235 62.297493 
L 494.033575 63.158574 
L 492.778003 63.886965 
L 491.621724 64.765013 
L 490.62264 65.803826 
L 489.778448 66.981771 
L 489.281013 68.293839 
L 488.526522 70.490976 
L 488.678348 71.154045 
L 488.967787 71.676963 
L 489.422339 71.982635 
L 491.226332 72.527138 
L 493.570366 72.843826 
L 502.064053 73.756475 
L 512.956092 75.474729 
L 516.334571 75.641668 
L 519.059874 75.583374 
L 521.80214 75.322365 
L 524.564357 74.853546 
L 527.343242 74.178681 
L 531.527792 72.889931 
L 536.451269 71.404591 
L 539.268608 70.816357 
L 541.366306 70.595657 
L 543.445589 70.606474 
L 545.471213 70.89206 
L 546.771206 71.264766 
L 547.688976 71.805018 
L 548.357322 72.592196 
L 548.61139 72.975118 
L 548.61139 72.975118 
" style="fill:none;stroke:#000000;stroke-linecap:square;stroke-width:1.2;"/>
   </g>
   <g id="line2d_29">
    <path clip-path="url(#pb49771fc8b)" d="M 620.412229 180.690719 
L 618.76236 180.294708 
L 614.993834 179.954137 
L 600.324527 178.869545 
L 593.534387 177.939489 
L 586.024736 176.931325 
L 581.953762 176.591169 
L 578.589919 176.498638 
L 575.265034 176.596922 
L 571.309519 176.971639 
L 568.03418 177.487143 
L 565.506019 178.104047 
L 563.145801 178.922452 
L 561.61938 179.636086 
L 560.998143 180.215589 
L 560.621086 180.794548 
L 560.612073 181.394594 
L 560.897563 181.782613 
L 561.327962 182.06064 
L 562.662484 182.539106 
L 565.47676 183.199735 
L 568.026884 183.548299 
L 570.586665 183.667592 
L 573.201586 183.584615 
L 575.848416 183.286084 
L 578.510835 182.771415 
L 581.866641 181.871513 
L 586.635058 180.31929 
L 596.254615 177.077025 
L 599.649809 176.182089 
L 602.344557 175.675498 
L 605.019996 175.408866 
L 607.014729 175.398462 
L 608.994084 175.57368 
L 610.951388 175.940013 
L 612.879868 176.498366 
L 615.415643 177.50581 
L 619.084421 179.260473 
L 619.861094 179.860485 
L 620.288198 180.543815 
L 620.384008 180.842733 
L 620.384008 180.842733 
" style="fill:none;stroke:#000000;stroke-linecap:square;stroke-width:1.2;"/>
   </g>
   <g id="line2d_30">
    <path clip-path="url(#pb49771fc8b)" d="M 619.899603 144.797999 
L 611.59724 141.590542 
L 605.563869 139.65722 
L 593.346339 135.867677 
L 587.268485 134.087979 
L 583.923069 133.299182 
L 581.274942 132.850576 
L 578.652783 132.609417 
L 576.050986 132.606189 
L 573.445958 132.878072 
L 571.476789 133.2841 
L 569.487791 133.871608 
L 567.493494 134.651686 
L 565.575411 135.647668 
L 563.863296 136.858873 
L 562.912524 137.78325 
L 562.177131 138.800349 
L 561.725722 139.89076 
L 561.429534 141.72092 
L 560.851698 143.199995 
L 560.705927 144.197242 
L 560.951352 145.241953 
L 561.549995 146.05853 
L 562.582652 146.757414 
L 564.878768 147.910017 
L 571.643542 150.871156 
L 573.455026 151.408631 
L 575.288833 151.766551 
L 577.745416 151.987471 
L 580.204001 151.93783 
L 582.66816 151.644801 
L 585.754931 151.020294 
L 589.464436 150.01666 
L 596.245807 147.876255 
L 601.737145 146.24114 
L 605.372056 145.377762 
L 608.38543 144.883446 
L 611.380974 144.634704 
L 614.967209 144.618976 
L 618.953345 144.819416 
L 619.894733 144.950013 
L 619.894733 144.950013 
" style="fill:none;stroke:#000000;stroke-linecap:square;stroke-width:1.2;"/>
   </g>
   <g id="line2d_31">
    <path clip-path="url(#pb49771fc8b)" d="M 620.723014 108.771281 
L 620.041802 108.004213 
L 619.691013 107.755532 
L 617.931851 107.121889 
L 615.342175 106.445769 
L 611.288052 105.615182 
L 605.054091 104.632766 
L 600.150522 103.713409 
L 595.949132 102.685407 
L 590.351113 101.027285 
L 584.062875 99.152293 
L 581.294056 98.524593 
L 578.551939 98.110806 
L 575.855093 97.954485 
L 573.852288 98.036481 
L 571.843906 98.301009 
L 569.813742 98.764272 
L 567.779681 99.445361 
L 565.80966 100.358406 
L 564.006192 101.489186 
L 562.967038 102.366041 
L 562.119329 103.330647 
L 561.53316 104.382811 
L 561.447161 104.925084 
L 560.784211 106.784841 
L 560.763633 107.603392 
L 561.020557 108.345261 
L 561.580825 108.796208 
L 562.488473 109.086668 
L 564.50744 109.369783 
L 569.376634 109.869792 
L 572.531404 110.571073 
L 576.309432 111.650005 
L 583.948407 113.908902 
L 587.219876 114.560335 
L 589.888051 114.885343 
L 592.570797 115.025401 
L 595.254136 114.953134 
L 597.931858 114.650681 
L 600.603346 114.106392 
L 603.266333 113.323224 
L 606.581622 112.103135 
L 612.49865 109.834938 
L 615.069015 109.085745 
L 617.607449 108.60015 
L 620.047887 108.373059 
L 620.645631 108.416026 
L 620.769112 108.719589 
L 620.707556 108.923295 
L 620.707556 108.923295 
" style="fill:none;stroke:#000000;stroke-linecap:square;stroke-width:1.2;"/>
   </g>
   <g id="line2d_32">
    <path clip-path="url(#pb49771fc8b)" d="M 621.049171 72.745015 
L 621.187342 72.510771 
L 621.196364 72.178264 
L 620.8643 71.580801 
L 619.827665 71.098084 
L 618.022524 70.513435 
L 615.450012 69.930131 
L 612.136138 69.410645 
L 607.384426 68.969839 
L 598.355921 68.222547 
L 594.123297 67.623383 
L 589.138529 66.681676 
L 582.702419 65.432024 
L 579.165074 64.96916 
L 576.419769 64.80191 
L 573.732217 64.864946 
L 571.727789 65.089815 
L 569.717342 65.486198 
L 567.703383 66.061023 
L 565.690224 66.839777 
L 563.718802 67.869337 
L 561.871357 69.151496 
L 561.35452 69.683258 
L 560.439892 71.26105 
L 560.412222 71.666037 
L 560.613215 72.073962 
L 560.898155 72.306222 
L 561.785404 72.285905 
L 566.830764 71.335612 
L 569.379595 71.187268 
L 571.95276 71.304484 
L 574.538305 71.672037 
L 577.145052 72.255186 
L 583.186231 73.937645 
L 587.417145 75.010202 
L 591.006856 75.725799 
L 593.894547 76.102567 
L 596.793592 76.254461 
L 599.706517 76.145144 
L 602.621012 75.764219 
L 605.53843 75.151353 
L 610.653437 73.782421 
L 614.970403 72.704594 
L 617.78852 72.241543 
L 619.807211 72.101106 
L 620.880404 72.13393 
L 621.1411 72.393999 
L 621.145983 72.639974 
L 621.035915 72.897029 
L 621.035915 72.897029 
" style="fill:none;stroke:#000000;stroke-linecap:square;stroke-width:1.2;"/>
   </g>
   <g id="text_2">
    <!-- SVD -->
    <defs>
     <path d="M 53.515625 70.515625 
L 53.515625 60.890625 
Q 47.90625 63.578125 42.921875 64.890625 
Q 37.9375 66.21875 33.296875 66.21875 
Q 25.25 66.21875 20.875 63.09375 
Q 16.5 59.96875 16.5 54.203125 
Q 16.5 49.359375 19.40625 46.890625 
Q 22.3125 44.4375 30.421875 42.921875 
L 36.375 41.703125 
Q 47.40625 39.59375 52.65625 34.296875 
Q 57.90625 29 57.90625 20.125 
Q 57.90625 9.515625 50.796875 4.046875 
Q 43.703125 -1.421875 29.984375 -1.421875 
Q 24.8125 -1.421875 18.96875 -0.25 
Q 13.140625 0.921875 6.890625 3.21875 
L 6.890625 13.375 
Q 12.890625 10.015625 18.65625 8.296875 
Q 24.421875 6.59375 29.984375 6.59375 
Q 38.421875 6.59375 43.015625 9.90625 
Q 47.609375 13.234375 47.609375 19.390625 
Q 47.609375 24.75 44.3125 27.78125 
Q 41.015625 30.8125 33.5 32.328125 
L 27.484375 33.5 
Q 16.453125 35.6875 11.515625 40.375 
Q 6.59375 45.0625 6.59375 53.421875 
Q 6.59375 63.09375 13.40625 68.65625 
Q 20.21875 74.21875 32.171875 74.21875 
Q 37.3125 74.21875 42.625 73.28125 
Q 47.953125 72.359375 53.515625 70.515625 
z
" id="DejaVuSans-83"/>
     <path d="M 28.609375 0 
L 0.78125 72.90625 
L 11.078125 72.90625 
L 34.1875 11.53125 
L 57.328125 72.90625 
L 67.578125 72.90625 
L 39.796875 0 
z
" id="DejaVuSans-86"/>
     <path d="M 19.671875 64.796875 
L 19.671875 8.109375 
L 31.59375 8.109375 
Q 46.6875 8.109375 53.6875 14.9375 
Q 60.6875 21.78125 60.6875 36.53125 
Q 60.6875 51.171875 53.6875 57.984375 
Q 46.6875 64.796875 31.59375 64.796875 
z
M 9.8125 72.90625 
L 30.078125 72.90625 
Q 51.265625 72.90625 61.171875 64.09375 
Q 71.09375 55.28125 71.09375 36.53125 
Q 71.09375 17.671875 61.125 8.828125 
Q 51.171875 0 30.078125 0 
L 9.8125 0 
z
" id="DejaVuSans-68"/>
    </defs>
    <g transform="translate(467.719875 25.92)scale(0.144 -0.144)">
     <use xlink:href="#DejaVuSans-83"/>
     <use x="63.476562" xlink:href="#DejaVuSans-86"/>
     <use x="131.884766" xlink:href="#DejaVuSans-68"/>
    </g>
   </g>
  </g>
  <g id="axes_3">
   <g id="line2d_33">
    <path clip-path="url(#p9f422c14a6)" d="M 85.680972 386.475318 
L 80.626468 387.523658 
L 77.752712 387.893056 
L 75.40095 388.003861 
L 72.99601 387.923885 
L 70.536936 387.647198 
L 67.392679 387.044675 
L 63.537117 386.029151 
L 53.091532 383.053917 
L 49.850205 382.467357 
L 47.271813 382.218211 
L 44.700977 382.180897 
L 42.128498 382.349348 
L 38.892573 382.808634 
L 34.974702 383.618825 
L 31.744901 384.488703 
L 29.286383 385.321057 
L 27.91959 386.038415 
L 27.400559 386.666805 
L 27.525351 387.049493 
L 28.046028 387.295636 
L 28.867866 387.397003 
L 30.350146 387.252856 
L 31.945168 386.81574 
L 33.638196 386.131495 
L 36.688633 384.59711 
L 47.452633 378.84604 
L 50.704348 377.411293 
L 54.059497 376.16338 
L 57.466336 375.163954 
L 60.019585 374.607862 
L 62.540873 374.235666 
L 65.002498 374.057197 
L 67.379099 374.076896 
L 69.647837 374.295325 
L 71.789364 374.708903 
L 73.788707 375.31042 
L 75.636094 376.089254 
L 77.327545 377.031913 
L 78.864994 378.122127 
L 80.256602 379.341587 
L 81.909973 381.133398 
L 83.376446 383.066927 
L 85.361227 386.111777 
L 85.680972 386.62466 
L 85.680972 386.62466 
" style="fill:none;stroke:#000000;stroke-linecap:square;stroke-width:1.2;"/>
   </g>
   <g id="line2d_34">
    <path clip-path="url(#p9f422c14a6)" d="M 85.680972 351.147285 
L 78.700807 352.05759 
L 75.35015 352.291225 
L 71.881635 352.308747 
L 68.898486 352.123115 
L 65.838123 351.739667 
L 62.081528 351.021303 
L 58.257318 350.056163 
L 45.241178 346.471421 
L 42.571054 346.047263 
L 39.859192 345.846983 
L 37.793316 345.874879 
L 35.71788 346.090345 
L 33.644687 346.542161 
L 31.581517 347.274563 
L 30.23935 347.93462 
L 29.021982 348.759539 
L 28.087524 349.729023 
L 27.536859 350.833627 
L 27.353481 351.925385 
L 27.548109 353.133349 
L 28.133747 354.331205 
L 29.339504 356.034619 
L 31.163786 358.19312 
L 33.137628 360.225273 
L 35.269664 362.139237 
L 37.545282 363.909268 
L 39.979166 365.475177 
L 41.914873 366.483242 
L 43.94513 367.327897 
L 46.065532 367.995015 
L 48.26759 368.474693 
L 50.539424 368.761394 
L 52.866089 368.854219 
L 55.230124 368.756028 
L 57.612265 368.473777 
L 59.991493 368.01594 
L 63.125516 367.149729 
L 66.176857 366.018012 
L 69.109501 364.653596 
L 71.897317 363.091059 
L 74.526014 361.36472 
L 76.994566 359.506864 
L 79.874747 357.043742 
L 83.099168 353.946353 
L 85.680972 351.296627 
L 85.680972 351.296627 
" style="fill:none;stroke:#000000;stroke-linecap:square;stroke-width:1.2;"/>
   </g>
   <g id="line2d_35">
    <path clip-path="url(#p9f422c14a6)" d="M 85.680972 315.819252 
L 76.286473 311.935595 
L 71.155205 310.032568 
L 66.148075 308.421002 
L 62.269543 307.382398 
L 58.538578 306.586333 
L 54.988271 306.038272 
L 51.651428 305.732234 
L 48.558097 305.651658 
L 45.732773 305.771783 
L 43.192686 306.061742 
L 40.43054 306.617048 
L 38.111701 307.334635 
L 36.186193 308.163326 
L 34.273512 309.246363 
L 31.502089 311.155602 
L 28.834213 313.151396 
L 27.899838 314.003957 
L 27.412421 314.668988 
L 27.249919 315.378541 
L 27.400559 316.010738 
L 27.855959 316.697508 
L 28.636135 317.292121 
L 29.644784 317.784893 
L 31.270067 318.301023 
L 32.845763 318.596718 
L 34.363897 318.695635 
L 36.326932 318.574976 
L 38.237257 318.218232 
L 40.144367 317.64405 
L 42.610864 316.657732 
L 48.115956 314.094507 
L 51.878041 312.473553 
L 55.260468 311.272705 
L 58.094584 310.499347 
L 61.010214 309.949711 
L 63.97512 309.665413 
L 66.212423 309.643705 
L 68.448416 309.79287 
L 70.67359 310.112971 
L 73.611699 310.794562 
L 76.508753 311.739032 
L 79.364069 312.899639 
L 83.585491 314.909388 
L 85.680972 315.968594 
L 85.680972 315.968594 
" style="fill:none;stroke:#000000;stroke-linecap:square;stroke-width:1.2;"/>
   </g>
   <g id="line2d_36">
    <path clip-path="url(#p9f422c14a6)" d="M 85.680972 280.491218 
L 80.682493 284.110031 
L 77.753192 286.000529 
L 74.736179 287.655545 
L 72.405697 288.7003 
L 70.014128 289.551311 
L 67.563204 290.192861 
L 65.059173 290.615901 
L 62.512386 290.818486 
L 59.937137 290.805304 
L 57.351062 290.587416 
L 54.77436 290.181466 
L 51.391429 289.385464 
L 48.118688 288.354776 
L 45.010564 287.161517 
L 41.426232 285.55798 
L 37.07829 283.355068 
L 31.126839 280.302604 
L 29.43464 279.67217 
L 28.271316 279.474603 
L 27.482203 279.547137 
L 27.056707 279.711535 
L 26.803636 279.996275 
L 26.923727 280.361119 
L 27.400559 280.682705 
L 28.220232 281.092141 
L 30.097004 281.598525 
L 32.348291 281.91978 
L 35.361295 282.125981 
L 38.946628 282.133545 
L 44.755647 281.887546 
L 57.122538 281.262374 
L 64.214196 281.269331 
L 72.783257 281.238935 
L 80.145324 280.969785 
L 85.680972 280.64056 
L 85.680972 280.64056 
" style="fill:none;stroke:#000000;stroke-linecap:square;stroke-width:1.2;"/>
   </g>
   <g id="line2d_37">
    <path clip-path="url(#p9f422c14a6)" d="M 156.337039 386.475318 
L 148.405736 382.799754 
L 142.820059 380.472794 
L 138.36196 378.857093 
L 134.424987 377.653441 
L 130.359111 376.660681 
L 126.86881 376.028071 
L 123.299881 375.607638 
L 119.679486 375.440231 
L 116.772988 375.514161 
L 113.886769 375.790891 
L 111.052671 376.282736 
L 108.305418 376.996888 
L 105.680189 377.934031 
L 103.225325 379.093685 
L 101.541971 380.133463 
L 100.015699 381.345079 
L 98.683915 382.743729 
L 98.017178 383.801408 
L 97.792822 384.36721 
L 97.707565 385.546331 
L 97.83043 386.14021 
L 98.385656 387.256209 
L 99.369259 388.412748 
L 100.78499 389.482096 
L 102.417788 390.4198 
L 105.067259 391.622297 
L 107.795693 392.585564 
L 110.564666 393.322833 
L 113.334841 393.853684 
L 116.055661 394.190764 
L 118.695929 394.331792 
L 121.234803 394.278172 
L 123.655438 394.037282 
L 125.945871 393.621949 
L 128.099083 393.050784 
L 130.753646 392.088044 
L 133.169673 390.957744 
L 135.889273 389.426963 
L 141.885109 385.874891 
L 143.583606 385.156956 
L 145.282162 384.690424 
L 147.008907 384.490098 
L 148.781941 384.550276 
L 150.608467 384.84497 
L 152.961356 385.474612 
L 156.337039 386.62466 
L 156.337039 386.62466 
" style="fill:none;stroke:#000000;stroke-linecap:square;stroke-width:1.2;"/>
   </g>
   <g id="line2d_38">
    <path clip-path="url(#p9f422c14a6)" d="M 156.337039 351.147285 
L 155.202103 349.676665 
L 154.35376 348.90725 
L 153.235443 348.184516 
L 151.772871 347.521723 
L 149.909654 346.934428 
L 147.609606 346.439569 
L 144.857846 346.053585 
L 140.969727 345.752874 
L 136.49406 345.646244 
L 131.518604 345.750959 
L 126.154038 346.067174 
L 119.573158 346.675073 
L 111.885166 347.609397 
L 106.258589 348.486778 
L 102.694767 349.252844 
L 100.310034 349.974737 
L 99.09051 350.527105 
L 98.056626 351.338772 
L 97.884785 351.89876 
L 97.950223 352.139456 
L 98.413759 352.576035 
L 99.097247 352.88903 
L 100.344017 353.18952 
L 102.201781 353.333459 
L 104.793046 353.247728 
L 109.943198 352.803081 
L 118.144068 352.091239 
L 124.184464 351.805195 
L 131.117854 351.723699 
L 147.591674 351.625867 
L 156.337039 351.296627 
L 156.337039 351.296627 
" style="fill:none;stroke:#000000;stroke-linecap:square;stroke-width:1.2;"/>
   </g>
   <g id="line2d_39">
    <path clip-path="url(#p9f422c14a6)" d="M 156.337039 315.819252 
L 156.95523 321.157099 
L 156.878611 321.994558 
L 156.640044 322.468743 
L 156.315552 322.69689 
L 155.833039 322.80867 
L 154.890053 322.76984 
L 153.128742 322.416414 
L 148.690438 321.198645 
L 141.018871 319.137616 
L 134.359026 317.605235 
L 128.009643 316.394972 
L 122.528618 315.55627 
L 116.836128 314.910655 
L 112.526173 314.625497 
L 108.250352 314.567666 
L 104.144182 314.779394 
L 101.668211 315.109457 
L 99.638248 315.56021 
L 97.4298 316.288717 
L 96.528717 316.872215 
L 96.105955 317.437805 
L 95.957887 317.943593 
L 96.066902 318.636145 
L 96.439598 319.255943 
L 97.064119 319.81329 
L 98.254386 320.480011 
L 99.786166 321.052233 
L 101.61903 321.492413 
L 103.716151 321.7715 
L 106.041511 321.873092 
L 109.22048 321.747858 
L 112.655574 321.366881 
L 117.068914 320.648785 
L 132.905597 317.839977 
L 138.476018 317.15296 
L 145.268138 316.570775 
L 154.307677 316.067729 
L 156.337039 315.968594 
L 156.337039 315.968594 
" style="fill:none;stroke:#000000;stroke-linecap:square;stroke-width:1.2;"/>
   </g>
   <g id="line2d_40">
    <path clip-path="url(#p9f422c14a6)" d="M 156.337039 280.491218 
L 153.542225 280.562085 
L 151.81167 280.79574 
L 150.094645 281.253885 
L 148.377039 281.965664 
L 146.271612 283.137424 
L 140.204131 286.802891 
L 138.218422 287.671451 
L 136.011049 288.372476 
L 134.191548 288.755184 
L 132.219857 288.993568 
L 130.088451 289.072284 
L 127.793227 288.980927 
L 124.477386 288.586853 
L 120.878559 287.8863 
L 117.018129 286.901109 
L 111.904296 285.343744 
L 98.549318 281.009059 
L 97.368784 280.169229 
L 97.098971 279.588451 
L 97.155389 278.938872 
L 97.540958 277.820311 
L 98.328569 276.173894 
L 99.412672 274.450055 
L 100.792326 272.759534 
L 102.450404 271.162037 
L 104.394691 269.688591 
L 106.622913 268.368703 
L 109.121738 267.231237 
L 111.867956 266.304695 
L 114.830285 265.617137 
L 117.171809 265.274688 
L 119.597128 265.092522 
L 122.08764 265.079623 
L 124.625761 265.241558 
L 127.195162 265.581778 
L 129.780817 266.101705 
L 132.369236 266.800084 
L 134.949302 267.673033 
L 138.361252 269.09598 
L 141.728618 270.791127 
L 145.045448 272.72325 
L 149.123665 275.403023 
L 153.943138 278.866743 
L 156.337039 280.64056 
L 156.337039 280.64056 
" style="fill:none;stroke:#000000;stroke-linecap:square;stroke-width:1.2;"/>
   </g>
   <g id="line2d_41">
    <path clip-path="url(#p9f422c14a6)" d="M 226.993105 386.475318 
L 224.264539 383.847505 
L 222.287286 382.289959 
L 220.45721 381.118427 
L 218.3637 380.033772 
L 215.989605 379.056408 
L 213.339784 378.207232 
L 210.440391 377.506651 
L 207.336084 376.972989 
L 204.085668 376.621192 
L 200.756971 376.46061 
L 197.422098 376.495707 
L 194.148745 376.727375 
L 190.993305 377.148387 
L 187.996197 377.742394 
L 184.502697 378.689697 
L 181.280946 379.80466 
L 177.106543 381.505542 
L 173.159044 383.295237 
L 170.430943 384.738059 
L 169.519264 385.39886 
L 168.951446 386.081834 
L 168.712692 386.666805 
L 168.791498 387.288982 
L 169.204767 387.806572 
L 169.85318 388.216234 
L 170.944445 388.612696 
L 172.318723 388.85523 
L 173.889323 388.880401 
L 177.328745 388.844092 
L 179.261613 389.062074 
L 183.002308 389.771293 
L 188.132391 390.69872 
L 191.639634 391.130725 
L 195.600547 391.380916 
L 199.070292 391.395576 
L 202.777955 391.214305 
L 206.691458 390.823733 
L 210.77571 390.226565 
L 216.066143 389.219384 
L 222.591792 387.721868 
L 226.993105 386.62466 
L 226.993105 386.62466 
" style="fill:none;stroke:#000000;stroke-linecap:square;stroke-width:1.2;"/>
   </g>
   <g id="line2d_42">
    <path clip-path="url(#p9f422c14a6)" d="M 226.993105 351.147285 
L 223.519204 347.785406 
L 221.335897 345.979975 
L 219.418018 344.656188 
L 217.383737 343.519486 
L 215.209888 342.576106 
L 212.874743 341.820137 
L 210.35766 341.237397 
L 207.639032 340.811446 
L 204.088105 340.49732 
L 200.19344 340.416859 
L 196.661797 340.561934 
L 192.850883 340.94565 
L 188.745043 341.624025 
L 185.240006 342.420919 
L 181.563366 343.492156 
L 178.719288 344.532615 
L 175.813782 345.821697 
L 173.872185 346.833678 
L 172.026313 347.994366 
L 170.435261 349.282897 
L 169.200818 350.689324 
L 168.712692 351.338772 
L 167.996944 352.815808 
L 167.647053 354.26715 
L 167.578052 356.355899 
L 167.876353 360.745478 
L 168.323797 364.004474 
L 168.876968 366.328222 
L 169.500381 367.854437 
L 170.108528 368.7743 
L 170.860759 369.485974 
L 171.776697 369.980781 
L 172.873799 370.255475 
L 174.167396 370.311816 
L 175.670407 370.15652 
L 178.017005 369.639832 
L 180.766926 368.801558 
L 185.656732 367.026798 
L 199.222566 361.693517 
L 211.877021 356.866542 
L 226.993105 351.296627 
L 226.993105 351.296627 
" style="fill:none;stroke:#000000;stroke-linecap:square;stroke-width:1.2;"/>
   </g>
   <g id="line2d_43">
    <path clip-path="url(#p9f422c14a6)" d="M 226.993105 315.819252 
L 218.309387 318.575576 
L 212.452898 320.644469 
L 206.143349 323.120325 
L 196.274502 327.073575 
L 193.095785 328.05736 
L 190.665535 328.569247 
L 188.325484 328.791718 
L 186.622994 328.750676 
L 184.960676 328.523008 
L 183.334537 328.106227 
L 181.741205 327.503337 
L 179.662372 326.425905 
L 177.629792 325.069985 
L 175.144577 323.065253 
L 171.834989 320.000089 
L 168.585338 316.797056 
L 168.577208 316.314487 
L 168.936681 315.780024 
L 170.189314 315.100985 
L 176.71216 312.304071 
L 182.814907 309.709465 
L 186.892265 308.215963 
L 189.962883 307.337284 
L 191.998752 306.958358 
L 194.028198 306.798663 
L 196.172958 306.874684 
L 198.550936 307.197589 
L 201.858102 307.917756 
L 206.4911 309.210566 
L 213.725667 311.511961 
L 226.993105 315.968594 
L 226.993105 315.968594 
" style="fill:none;stroke:#000000;stroke-linecap:square;stroke-width:1.2;"/>
   </g>
   <g id="line2d_44">
    <path clip-path="url(#p9f422c14a6)" d="M 226.993105 280.491218 
L 219.74579 278.508006 
L 215.09034 277.483493 
L 211.259704 276.851799 
L 207.328824 276.418558 
L 203.310236 276.198353 
L 199.233827 276.191026 
L 195.145924 276.381953 
L 190.112279 276.85571 
L 184.367115 277.66339 
L 177.620071 278.878829 
L 168.261423 280.626547 
L 167.002705 280.651236 
L 166.456082 280.450931 
L 166.40856 280.330387 
L 166.4541 280.313834 
L 167.249506 280.509842 
L 168.137034 280.67726 
L 169.370843 280.750048 
L 170.950071 280.864618 
L 173.895272 280.878876 
L 178.075892 280.573824 
L 182.121915 280.013392 
L 186.905042 279.091746 
L 192.146943 277.84794 
L 197.589029 276.321568 
L 208.411768 273.175586 
L 211.089716 272.681449 
L 213.091109 272.50463 
L 214.974071 272.544609 
L 216.744129 272.815129 
L 218.406805 273.320947 
L 219.968817 274.056871 
L 221.439136 275.006908 
L 222.82948 276.144419 
L 224.47789 277.77336 
L 226.993105 280.64056 
L 226.993105 280.64056 
" style="fill:none;stroke:#000000;stroke-linecap:square;stroke-width:1.2;"/>
   </g>
   <g id="line2d_45">
    <path clip-path="url(#p9f422c14a6)" d="M 297.649172 386.475318 
L 284.902063 386.82381 
L 275.663622 387.302914 
L 263.881381 387.977025 
L 261.222537 387.884325 
L 258.251497 387.534973 
L 254.244601 386.779061 
L 249.141024 385.822958 
L 246.30416 385.461712 
L 243.965805 385.366274 
L 242.19655 385.475661 
L 240.586319 385.791712 
L 239.819646 386.119896 
L 239.428618 386.528999 
L 239.395566 386.873467 
L 239.728935 387.285186 
L 240.438384 387.6411 
L 241.792544 388.00406 
L 243.719107 388.253011 
L 245.648081 388.27191 
L 248.015504 388.050811 
L 250.273927 387.589085 
L 252.438939 386.88404 
L 254.552019 385.963031 
L 262.288922 382.260351 
L 264.480154 381.578506 
L 266.900214 381.085294 
L 269.580641 380.824014 
L 272.541517 380.825637 
L 275.789145 381.105198 
L 279.314686 381.660114 
L 283.093853 382.469555 
L 288.113888 383.77944 
L 295.502969 385.968437 
L 297.649172 386.62466 
L 297.649172 386.62466 
" style="fill:none;stroke:#000000;stroke-linecap:square;stroke-width:1.2;"/>
   </g>
   <g id="line2d_46">
    <path clip-path="url(#p9f422c14a6)" d="M 297.649172 351.147285 
L 280.605765 341.089877 
L 274.107372 337.442324 
L 269.591875 335.147452 
L 266.062182 333.622756 
L 263.381184 332.707051 
L 260.815983 332.095435 
L 258.962733 331.852521 
L 257.165443 331.80572 
L 255.420185 331.961212 
L 253.723686 332.321793 
L 252.073661 332.886032 
L 250.469117 333.648589 
L 248.910044 334.600393 
L 246.903998 336.141202 
L 244.986109 337.956754 
L 243.170244 340.003136 
L 241.509126 342.272138 
L 240.385825 344.135916 
L 239.402116 346.147081 
L 238.935974 347.589339 
L 238.802479 348.340367 
L 238.880401 349.876678 
L 239.07582 350.643112 
L 239.75893 352.094266 
L 240.849004 353.57658 
L 242.352099 354.968124 
L 244.05587 356.23122 
L 246.787716 357.944095 
L 249.579352 359.467566 
L 253.347205 361.270741 
L 258.938638 363.661354 
L 265.966444 366.399993 
L 271.537437 368.363143 
L 275.804757 369.638008 
L 278.379377 370.217559 
L 280.742795 370.532179 
L 282.382356 370.567385 
L 283.915457 370.409112 
L 285.35051 370.040509 
L 286.696966 369.448326 
L 287.964642 368.623773 
L 289.16349 367.563223 
L 290.303291 366.268946 
L 291.393517 364.749145 
L 292.784895 362.398012 
L 294.450319 359.011578 
L 296.381314 354.474686 
L 297.649172 351.296627 
L 297.649172 351.296627 
" style="fill:none;stroke:#000000;stroke-linecap:square;stroke-width:1.2;"/>
   </g>
   <g id="line2d_47">
    <path clip-path="url(#p9f422c14a6)" d="M 297.649172 315.819252 
L 280.569915 316.950688 
L 268.763363 317.966916 
L 258.814452 319.050919 
L 244.938819 320.624976 
L 242.183919 320.701961 
L 240.321866 320.564204 
L 238.834438 320.221223 
L 237.906008 319.790158 
L 237.204474 319.217437 
L 236.75097 318.519526 
L 236.57592 317.771558 
L 236.631856 317.230011 
L 236.829524 316.897067 
L 237.25239 316.619906 
L 238.103921 316.363699 
L 243.104492 315.284194 
L 246.718921 314.459198 
L 250.521841 313.405126 
L 255.56563 311.743836 
L 261.671497 309.437951 
L 268.404089 306.622953 
L 275.141696 303.552064 
L 284.07269 299.460772 
L 285.950384 298.831808 
L 287.49747 298.564716 
L 288.47718 298.614442 
L 289.333417 298.882664 
L 290.094727 299.369768 
L 290.788507 300.072576 
L 291.65145 301.333385 
L 292.699466 303.392704 
L 294.226577 307.044239 
L 297.649172 315.968594 
L 297.649172 315.968594 
" style="fill:none;stroke:#000000;stroke-linecap:square;stroke-width:1.2;"/>
   </g>
   <g id="line2d_48">
    <path clip-path="url(#p9f422c14a6)" d="M 297.649172 280.491218 
L 301.202282 280.703445 
L 302.897466 281.017805 
L 303.525457 281.333122 
L 303.676364 281.626745 
L 303.52572 281.96564 
L 303.056621 282.342644 
L 301.920457 282.886653 
L 300.199135 283.448457 
L 297.910505 283.990052 
L 295.090253 284.470281 
L 291.789518 284.848734 
L 288.070846 285.093268 
L 284.000572 285.179952 
L 278.521783 285.045218 
L 272.727765 284.638259 
L 266.733497 283.985005 
L 259.412432 282.953054 
L 247.435248 281.202939 
L 243.054352 280.829632 
L 238.290476 280.581098 
L 238.532885 280.293107 
L 240.205368 278.892155 
L 242.264287 277.489 
L 244.982008 275.923742 
L 248.374352 274.249167 
L 251.692948 272.843383 
L 255.405242 271.520551 
L 258.609025 270.59357 
L 261.970833 269.847634 
L 265.438622 269.339582 
L 268.078629 269.143856 
L 270.729955 269.126303 
L 273.37444 269.300113 
L 275.996311 269.673857 
L 278.582814 270.250685 
L 281.1247 271.028031 
L 283.616312 271.99708 
L 286.055959 273.143131 
L 289.231761 274.910193 
L 292.33251 276.891672 
L 296.893765 280.096459 
L 297.649172 280.64056 
L 297.649172 280.64056 
" style="fill:none;stroke:#000000;stroke-linecap:square;stroke-width:1.2;"/>
   </g>
   <g id="text_3">
    <!-- GMDV -->
    <defs>
     <path d="M 9.8125 72.90625 
L 24.515625 72.90625 
L 43.109375 23.296875 
L 61.8125 72.90625 
L 76.515625 72.90625 
L 76.515625 0 
L 66.890625 0 
L 66.890625 64.015625 
L 48.09375 14.015625 
L 38.1875 14.015625 
L 19.390625 64.015625 
L 19.390625 0 
L 9.8125 0 
z
" id="DejaVuSans-77"/>
    </defs>
    <g transform="translate(142.98075 234.36)scale(0.144 -0.144)">
     <use xlink:href="#DejaVuSans-71"/>
     <use x="77.490234" xlink:href="#DejaVuSans-77"/>
     <use x="163.769531" xlink:href="#DejaVuSans-68"/>
     <use x="240.755859" xlink:href="#DejaVuSans-86"/>
    </g>
   </g>
  </g>
  <g id="axes_4">
   <g id="line2d_49">
    <path clip-path="url(#pf901add88c)" d="M 404.02386 383.996391 
L 392.937735 381.585451 
L 389.01894 381.0349 
L 385.096802 380.718696 
L 381.17108 380.643552 
L 377.241597 380.808212 
L 373.30883 381.211711 
L 369.378988 381.860719 
L 365.455297 382.761016 
L 361.539547 383.88604 
L 352.450348 386.633986 
L 350.548304 386.948807 
L 349.305472 386.999575 
L 348.086047 386.872343 
L 346.894149 386.520725 
L 345.805194 385.904745 
L 344.908509 384.995272 
L 344.417801 383.976434 
L 344.323636 383.180975 
L 344.417801 382.828132 
L 344.618252 382.546945 
L 344.908509 382.396709 
L 345.805194 382.422086 
L 346.894149 382.78309 
L 348.692655 383.661176 
L 356.983573 388.146326 
L 359.585196 389.256804 
L 362.191535 390.133469 
L 364.802055 390.743712 
L 367.416277 391.069989 
L 370.033603 391.11139 
L 372.653498 390.883663 
L 375.275422 390.418156 
L 378.551902 389.564326 
L 382.480072 388.247446 
L 392.937735 384.531856 
L 395.548374 383.90808 
L 398.1577 383.542438 
L 400.113843 383.475559 
L 402.06921 383.612591 
L 404.02386 383.973007 
L 404.02386 383.973007 
" style="fill:none;stroke:#000000;stroke-linecap:square;stroke-width:1.2;"/>
   </g>
   <g id="line2d_50">
    <path clip-path="url(#pf901add88c)" d="M 404.02386 347.751114 
L 400.765711 345.661797 
L 397.505533 343.877329 
L 394.895849 342.678237 
L 392.284792 341.684612 
L 389.672302 340.894122 
L 387.058319 340.298882 
L 383.788646 339.808037 
L 380.516465 339.561847 
L 376.586325 339.515828 
L 370.688338 339.723089 
L 365.455297 339.860847 
L 362.191535 339.765999 
L 358.934342 339.463706 
L 355.03573 338.836584 
L 349.305472 337.836536 
L 347.485948 337.831311 
L 346.330534 338.066651 
L 345.321054 338.60108 
L 344.908509 338.995234 
L 344.618252 339.442799 
L 344.323636 340.536797 
L 344.417801 341.527385 
L 344.618252 342.09845 
L 344.908509 342.580036 
L 345.805194 343.405524 
L 346.894149 343.963989 
L 348.692655 344.492611 
L 350.548304 344.772878 
L 353.738859 344.943 
L 362.191535 345.295189 
L 367.416277 345.724184 
L 372.653498 346.368988 
L 379.206816 347.434552 
L 387.058319 348.711814 
L 390.978726 349.141401 
L 394.243204 349.30326 
L 397.505533 349.23517 
L 400.113843 348.988635 
L 402.720839 348.55663 
L 404.02386 348.269133 
L 404.02386 348.269133 
" style="fill:none;stroke:#000000;stroke-linecap:square;stroke-width:1.2;"/>
   </g>
   <g id="line2d_51">
    <path clip-path="url(#pf901add88c)" d="M 404.02386 319.214623 
L 401.417461 317.277795 
L 398.809807 315.592292 
L 396.20084 314.14479 
L 392.937735 312.626737 
L 389.672302 311.367121 
L 385.75076 310.097592 
L 380.516465 308.663304 
L 375.275422 307.445874 
L 371.343252 306.730423 
L 368.070355 306.375669 
L 365.455297 306.335088 
L 363.496347 306.487897 
L 361.539547 306.823621 
L 359.585196 307.358233 
L 357.633531 308.096647 
L 355.684672 309.028553 
L 353.092842 310.519133 
L 346.894149 314.364842 
L 345.805194 314.723502 
L 344.908509 314.734284 
L 344.618252 314.605754 
L 344.323636 314.144689 
L 344.417801 313.66905 
L 344.908509 313.185687 
L 345.805194 312.886509 
L 346.894149 312.783908 
L 348.692655 312.867443 
L 351.177661 313.254502 
L 355.03573 314.167015 
L 368.724612 317.691058 
L 371.998345 318.193495 
L 375.275422 318.495625 
L 379.206816 318.633778 
L 384.442783 318.563558 
L 392.284792 318.442555 
L 396.20084 318.615435 
L 400.113843 319.017202 
L 404.02386 319.575882 
L 404.02386 319.575882 
" style="fill:none;stroke:#000000;stroke-linecap:square;stroke-width:1.2;"/>
   </g>
   <g id="line2d_52">
    <path clip-path="url(#pf901add88c)" d="M 404.02386 275.010385 
L 398.1577 273.941421 
L 392.937735 273.216858 
L 385.75076 272.484819 
L 374.619792 271.355423 
L 361.539547 269.862722 
L 358.934342 269.813566 
L 356.333973 269.990131 
L 354.387085 270.316356 
L 352.450348 270.845411 
L 350.548304 271.645221 
L 349.305472 272.377403 
L 348.086047 273.301636 
L 346.894149 274.441315 
L 345.805194 275.786504 
L 344.908509 277.356056 
L 344.417801 278.942939 
L 344.323636 280.230279 
L 344.618252 281.518491 
L 344.908509 282.024572 
L 345.805194 282.834723 
L 346.894149 283.337745 
L 348.086047 283.648248 
L 349.924081 283.857284 
L 351.811795 283.82385 
L 354.387085 283.532961 
L 357.633531 282.955503 
L 360.887858 282.166117 
L 364.802055 280.955008 
L 369.378988 279.2567 
L 379.86173 275.190492 
L 383.788646 273.972969 
L 387.058319 273.214926 
L 389.672302 272.821409 
L 392.284792 272.647416 
L 394.895849 272.714404 
L 397.505533 273.034601 
L 400.113843 273.607892 
L 402.720839 274.418281 
L 404.02386 274.902094 
L 404.02386 274.902094 
" style="fill:none;stroke:#000000;stroke-linecap:square;stroke-width:1.2;"/>
   </g>
   <g id="line2d_53">
    <path clip-path="url(#pf901add88c)" d="M 476.414695 375.882155 
L 467.286683 376.695636 
L 464.022683 376.722979 
L 460.756354 376.557612 
L 456.833618 376.128407 
L 452.252565 375.390434 
L 439.807111 373.215156 
L 436.539886 372.986436 
L 433.930382 373.0403 
L 431.325177 373.36461 
L 429.374407 373.817848 
L 427.426564 374.475025 
L 425.483677 375.353953 
L 423.568496 376.505686 
L 422.314916 377.470257 
L 420.476882 379.230176 
L 418.721369 381.251707 
L 416.714471 383.985121 
L 417.711889 382.689285 
L 418.721369 381.798526 
L 419.876783 381.077377 
L 421.083489 380.560747 
L 422.314916 380.260401 
L 423.568496 380.15544 
L 425.483677 380.286406 
L 428.075507 380.801519 
L 431.325177 381.751532 
L 443.079173 385.533682 
L 446.355115 386.274338 
L 449.632431 386.793072 
L 452.907299 387.056503 
L 455.525283 387.053352 
L 458.141595 386.829614 
L 460.756354 386.353289 
L 463.36956 385.590442 
L 465.32857 384.809667 
L 467.286683 383.834292 
L 469.24408 382.652647 
L 471.200642 381.25435 
L 473.156546 379.63305 
L 475.763244 377.121476 
L 476.414695 376.432109 
L 476.414695 376.432109 
" style="fill:none;stroke:#000000;stroke-linecap:square;stroke-width:1.2;"/>
   </g>
   <g id="line2d_54">
    <path clip-path="url(#pf901add88c)" d="M 476.414695 346.784106 
L 473.808295 347.180871 
L 469.896367 347.507715 
L 463.36956 347.773612 
L 456.833618 347.838128 
L 451.597651 347.654586 
L 447.010626 347.274678 
L 440.461189 346.466244 
L 434.58237 345.781574 
L 430.674622 345.544285 
L 426.77792 345.531639 
L 421.083489 345.592875 
L 419.284984 345.415253 
L 417.711889 345.042975 
L 416.714471 344.607146 
L 417.299343 344.962201 
L 419.876783 346.375929 
L 422.939138 347.774445 
L 426.77792 349.204176 
L 431.325177 350.658949 
L 435.234656 351.677098 
L 438.499612 352.290919 
L 441.115446 352.589008 
L 443.734087 352.696866 
L 446.355115 352.611927 
L 449.632431 352.252977 
L 452.907299 351.648425 
L 456.833618 350.680132 
L 467.939209 347.754717 
L 471.200642 347.192287 
L 474.460044 346.837199 
L 476.414695 346.702409 
L 476.414695 346.702409 
" style="fill:none;stroke:#000000;stroke-linecap:square;stroke-width:1.2;"/>
   </g>
   <g id="line2d_55">
    <path clip-path="url(#pf901add88c)" d="M 476.414695 305.692908 
L 474.460044 305.81146 
L 471.852689 306.238956 
L 468.591674 307.058424 
L 464.022683 308.475099 
L 454.21647 311.58092 
L 449.632431 312.793616 
L 445.699664 313.624638 
L 442.424438 314.114535 
L 439.807111 314.327019 
L 437.192889 314.342061 
L 434.58237 314.129756 
L 431.97603 313.673169 
L 429.374407 312.976919 
L 426.129694 311.828997 
L 419.284984 309.244123 
L 418.196028 309.181175 
L 417.711889 309.288016 
L 417.299343 309.506745 
L 417.009087 309.831747 
L 416.808636 310.310618 
L 416.714471 311.360303 
L 417.009087 312.886224 
L 417.711889 314.500512 
L 418.721369 316.058039 
L 419.876783 317.385423 
L 421.083489 318.499957 
L 422.314916 319.376437 
L 423.568496 320.020602 
L 424.841183 320.45544 
L 426.77792 320.798243 
L 428.724808 320.858341 
L 430.674622 320.664872 
L 432.627242 320.247668 
L 435.234656 319.409476 
L 438.499612 318.048747 
L 449.632431 313.091814 
L 452.907299 311.967815 
L 456.833618 310.874498 
L 461.409775 309.864104 
L 469.896367 308.072132 
L 473.156546 307.135892 
L 475.763244 306.197885 
L 476.414695 305.933183 
L 476.414695 305.933183 
" style="fill:none;stroke:#000000;stroke-linecap:square;stroke-width:1.2;"/>
   </g>
   <g id="line2d_56">
    <path clip-path="url(#pf901add88c)" d="M 476.414695 269.426462 
L 460.102813 272.725874 
L 454.21647 273.562272 
L 447.666257 274.278435 
L 441.769823 274.708787 
L 437.846131 274.798655 
L 434.58237 274.685392 
L 431.325177 274.346569 
L 428.724808 273.882834 
L 426.129694 273.229564 
L 423.568496 272.366796 
L 421.696307 271.544134 
L 419.876783 270.550492 
L 418.196028 269.408611 
L 417.299343 268.601814 
L 416.808636 267.904787 
L 416.714471 267.450783 
L 416.808636 267.28234 
L 417.009087 267.176246 
L 417.711889 267.234611 
L 418.721369 267.585522 
L 421.083489 268.754247 
L 426.129694 271.381901 
L 428.724808 272.499655 
L 431.325177 273.398387 
L 433.930382 274.058318 
L 436.539886 274.481361 
L 439.153272 274.685989 
L 442.424438 274.678509 
L 445.699664 274.440212 
L 449.632431 273.940485 
L 454.870906 273.046605 
L 473.808295 269.570695 
L 476.414695 269.342605 
L 476.414695 269.342605 
" style="fill:none;stroke:#000000;stroke-linecap:square;stroke-width:1.2;"/>
   </g>
   <g id="line2d_57">
    <path clip-path="url(#pf901add88c)" d="M 548.805529 380.447845 
L 544.243524 379.793218 
L 540.982509 379.530052 
L 537.719404 379.465458 
L 533.800609 379.60842 
L 527.261741 380.130983 
L 519.401461 380.718579 
L 507.625491 381.444708 
L 504.366865 381.928743 
L 501.115642 382.651378 
L 497.874511 383.605222 
L 494.70575 384.775818 
L 491.675818 386.183857 
L 490.102723 387.161333 
L 489.399921 387.89929 
L 489.105305 388.729104 
L 489.19947 389.450176 
L 489.399921 389.853642 
L 489.690178 390.176122 
L 490.586863 390.630076 
L 491.675818 390.759073 
L 492.867716 390.641497 
L 494.70575 390.168898 
L 503.065456 387.506754 
L 505.669527 387.067415 
L 508.278016 386.861756 
L 511.544107 386.868403 
L 516.780014 387.185335 
L 522.023266 387.428555 
L 525.298134 387.380074 
L 528.570315 387.115691 
L 531.839988 386.616289 
L 535.107272 385.887801 
L 538.372168 384.953288 
L 542.287202 383.599728 
L 546.19913 382.015865 
L 548.805529 380.812806 
L 548.805529 380.812806 
" style="fill:none;stroke:#000000;stroke-linecap:square;stroke-width:1.2;"/>
   </g>
   <g id="line2d_58">
    <path clip-path="url(#pf901add88c)" d="M 548.805529 354.828116 
L 539.677518 350.702576 
L 531.839988 347.165111 
L 527.916117 345.641961 
L 524.643399 344.608368 
L 522.023266 343.976447 
L 519.401461 343.542131 
L 516.780014 343.321022 
L 514.160657 343.316616 
L 511.544107 343.513692 
L 508.278016 343.988602 
L 497.232017 345.896989 
L 495.329973 345.921997 
L 494.087141 345.778499 
L 492.867716 345.478924 
L 491.675818 345.014434 
L 490.586863 344.380158 
L 489.690178 343.574936 
L 489.19947 342.786666 
L 489.105305 342.307158 
L 489.19947 342.174864 
L 489.399921 342.165384 
L 490.102723 342.547432 
L 491.675818 343.906989 
L 497.232017 349.18086 
L 499.817399 351.103209 
L 501.765242 352.314135 
L 503.716011 353.302265 
L 505.669527 354.064172 
L 507.625491 354.610475 
L 509.583724 354.963462 
L 512.197946 355.18293 
L 515.470007 355.164134 
L 520.057091 354.858614 
L 528.570315 354.292332 
L 533.800609 354.194304 
L 539.024873 354.322221 
L 545.54738 354.726499 
L 548.805529 355.014589 
L 548.805529 355.014589 
" style="fill:none;stroke:#000000;stroke-linecap:square;stroke-width:1.2;"/>
   </g>
   <g id="line2d_59">
    <path clip-path="url(#pf901add88c)" d="M 548.805529 308.575016 
L 544.243524 309.218651 
L 539.677518 309.619195 
L 534.453971 309.828149 
L 523.333571 309.942691 
L 512.852024 310.191326 
L 498.520528 310.671677 
L 495.95933 310.980411 
L 494.087141 311.394422 
L 492.267617 312.053233 
L 491.112203 312.652459 
L 490.102723 313.375588 
L 489.399921 314.107171 
L 489.105305 314.720161 
L 489.19947 315.050479 
L 489.690178 315.181126 
L 491.112203 314.973456 
L 508.930721 311.119493 
L 519.401461 308.59993 
L 523.988485 307.759465 
L 527.916117 307.249858 
L 531.839988 306.954179 
L 535.760395 306.877028 
L 539.677518 307.019541 
L 543.591476 307.394641 
L 546.850879 307.916396 
L 548.805529 308.343689 
L 548.805529 308.343689 
" style="fill:none;stroke:#000000;stroke-linecap:square;stroke-width:1.2;"/>
   </g>
   <g id="line2d_60">
    <path clip-path="url(#pf901add88c)" d="M 548.805529 274.490484 
L 542.939369 275.100811 
L 539.024873 275.305072 
L 535.107272 275.291091 
L 531.186268 275.050912 
L 526.607305 274.531236 
L 514.815272 273.018134 
L 511.544107 272.934946 
L 508.930721 273.094149 
L 506.321216 273.48069 
L 503.716011 274.08793 
L 500.466341 275.080935 
L 495.95933 276.503776 
L 494.087141 276.85539 
L 492.867716 276.87986 
L 491.675818 276.665884 
L 490.586863 276.153874 
L 489.690178 275.296097 
L 489.19947 274.257171 
L 489.105305 273.393648 
L 489.19947 272.977946 
L 489.399921 272.608735 
L 489.690178 272.351249 
L 490.586863 272.059079 
L 491.675818 272.012871 
L 494.087141 272.239687 
L 497.874511 272.867714 
L 505.669527 274.413456 
L 516.780014 276.714202 
L 520.712602 277.25797 
L 523.988485 277.514103 
L 527.261741 277.573163 
L 530.532429 277.434062 
L 534.453971 277.027784 
L 539.024873 276.299179 
L 548.805529 274.50515 
L 548.805529 274.50515 
" style="fill:none;stroke:#000000;stroke-linecap:square;stroke-width:1.2;"/>
   </g>
   <g id="line2d_61">
    <path clip-path="url(#pf901add88c)" d="M 621.196364 381.349716 
L 618.589964 380.761174 
L 615.982311 380.408833 
L 612.720878 380.182847 
L 607.498107 380.082697 
L 597.688968 380.176308 
L 589.170849 380.440495 
L 583.281281 380.830249 
L 577.408911 381.427674 
L 572.208233 382.150526 
L 568.350165 382.875884 
L 565.258551 383.675056 
L 563.503038 384.328436 
L 562.493558 384.868322 
L 561.790756 385.478839 
L 561.49614 386.181757 
L 561.590305 386.857497 
L 562.081012 387.713503 
L 562.977697 388.597489 
L 564.658452 389.813725 
L 566.477976 390.869671 
L 568.350165 391.679646 
L 570.265346 392.239637 
L 572.857176 392.69977 
L 575.456291 392.881379 
L 578.060361 392.799009 
L 580.668851 392.494185 
L 583.934941 391.888539 
L 598.998139 388.720286 
L 609.457295 386.946093 
L 612.720878 386.097013 
L 615.330203 385.175619 
L 617.286346 384.296917 
L 619.241713 383.223352 
L 621.196364 381.924473 
L 621.196364 381.924473 
" style="fill:none;stroke:#000000;stroke-linecap:square;stroke-width:1.2;"/>
   </g>
   <g id="line2d_62">
    <path clip-path="url(#pf901add88c)" d="M 621.196364 348.024347 
L 615.330203 346.525514 
L 598.998139 342.203274 
L 593.758828 341.112208 
L 589.170849 340.374608 
L 585.242858 339.949541 
L 581.321555 339.753856 
L 577.408911 339.804968 
L 573.506477 340.091045 
L 568.350165 340.738082 
L 563.503038 341.369254 
L 562.081012 341.356432 
L 561.590305 341.19726 
L 561.49614 340.985316 
L 561.790756 340.711105 
L 562.493558 340.494979 
L 564.066653 340.370196 
L 565.865158 340.46663 
L 568.350165 340.827 
L 572.208233 341.646707 
L 584.58878 344.429025 
L 589.826001 345.292053 
L 595.069313 345.927149 
L 601.615287 346.479541 
L 618.589964 347.745478 
L 621.196364 348.074185 
L 621.196364 348.074185 
" style="fill:none;stroke:#000000;stroke-linecap:square;stroke-width:1.2;"/>
   </g>
   <g id="line2d_63">
    <path clip-path="url(#pf901add88c)" d="M 621.196364 309.128406 
L 610.110239 309.66805 
L 606.844805 309.505231 
L 603.577103 309.105232 
L 600.306952 308.459838 
L 597.034234 307.581302 
L 593.103437 306.260021 
L 588.515756 304.454988 
L 582.6278 302.162748 
L 580.016325 301.362623 
L 577.408911 300.817283 
L 575.456291 300.624108 
L 573.506477 300.650368 
L 571.559589 300.920589 
L 569.622852 301.464425 
L 568.350165 302.042151 
L 567.096585 302.853519 
L 565.865158 303.936331 
L 564.658452 305.309696 
L 563.503038 306.956258 
L 562.493558 308.917624 
L 561.790756 310.980153 
L 561.49614 312.941425 
L 561.590305 314.280201 
L 561.790756 314.882279 
L 562.081012 315.285727 
L 562.493558 315.553963 
L 562.977697 315.683364 
L 564.066653 315.613991 
L 565.258551 315.27069 
L 568.350165 313.980416 
L 571.559589 312.746088 
L 574.156076 311.978112 
L 576.757699 311.469548 
L 579.364039 311.236291 
L 581.974558 311.256621 
L 585.242858 311.564944 
L 589.826001 312.300911 
L 596.37932 313.356827 
L 599.652575 313.679495 
L 602.923264 313.771739 
L 605.538023 313.646336 
L 608.151229 313.328362 
L 610.763003 312.816081 
L 614.025749 311.922082 
L 617.938215 310.560322 
L 621.196364 309.311137 
L 621.196364 309.311137 
" style="fill:none;stroke:#000000;stroke-linecap:square;stroke-width:1.2;"/>
   </g>
   <g id="line2d_64">
    <path clip-path="url(#pf901add88c)" d="M 621.196364 273.107946 
L 618.589964 273.754072 
L 615.982311 274.133035 
L 613.373343 274.259474 
L 610.763003 274.152598 
L 608.151229 273.835801 
L 604.884482 273.186383 
L 601.615287 272.312335 
L 597.034234 270.840938 
L 587.860842 267.814236 
L 584.58878 267.020232 
L 581.974558 266.626908 
L 580.016325 266.515851 
L 578.060361 266.59095 
L 576.106846 266.875756 
L 574.156076 267.389217 
L 572.208233 268.145142 
L 570.265346 269.149899 
L 568.350165 270.429892 
L 566.477976 272.042677 
L 564.658452 273.999618 
L 562.977697 276.196518 
L 562.081012 277.695081 
L 561.590305 278.975101 
L 561.49614 279.854125 
L 561.590305 280.248458 
L 561.790756 280.601933 
L 562.081012 280.865976 
L 562.977697 281.278264 
L 564.658452 281.703803 
L 568.350165 282.384327 
L 572.857176 282.98398 
L 576.757699 283.312686 
L 580.016325 283.369389 
L 583.281281 283.189973 
L 586.551492 282.770378 
L 589.826001 282.132709 
L 593.758828 281.139193 
L 598.343584 279.75398 
L 605.538023 277.306159 
L 612.068352 275.135075 
L 615.982311 274.034254 
L 619.241713 273.319841 
L 621.196364 273.006512 
L 621.196364 273.006512 
" style="fill:none;stroke:#000000;stroke-linecap:square;stroke-width:1.2;"/>
   </g>
   <g id="text_4">
    <!-- FFD -->
    <defs>
     <path d="M 9.8125 72.90625 
L 51.703125 72.90625 
L 51.703125 64.59375 
L 19.671875 64.59375 
L 19.671875 43.109375 
L 48.578125 43.109375 
L 48.578125 34.8125 
L 19.671875 34.8125 
L 19.671875 0 
L 9.8125 0 
z
" id="DejaVuSans-70"/>
    </defs>
    <g transform="translate(468.93375 234.36)scale(0.144 -0.144)">
     <use xlink:href="#DejaVuSans-70"/>
     <use x="57.519531" xlink:href="#DejaVuSans-70"/>
     <use x="115.039062" xlink:href="#DejaVuSans-68"/>
    </g>
   </g>
  </g>
 </g>
 <defs>
  <clipPath id="pbf5214d4c6">
   <rect height="178.68" width="304.56" x="12.96" y="31.92"/>
  </clipPath>
  <clipPath id="pb49771fc8b">
   <rect height="178.68" width="304.56" x="330.48" y="31.92"/>
  </clipPath>
  <clipPath id="p9f422c14a6">
   <rect height="178.68" width="304.56" x="12.96" y="240.36"/>
  </clipPath>
  <clipPath id="pf901add88c">
   <rect height="178.68" width="304.56" x="330.48" y="240.36"/>
  </clipPath>
 </defs>
</svg>
