<?xml version="1.0" encoding="utf-8" standalone="no"?>
<!DOCTYPE svg PUBLIC "-//W3C//DTD SVG 1.1//EN"
  "http://www.w3.org/Graphics/SVG/1.1/DTD/svg11.dtd">
<!-- Created with matplotlib (https://matplotlib.org/) -->
<svg height="360pt" version="1.1" viewBox="0 0 360 360" width="360pt" xmlns="http://www.w3.org/2000/svg" xmlns:xlink="http://www.w3.org/1999/xlink">
 <defs>
  <style type="text/css">
*{stroke-linecap:butt;stroke-linejoin:round;white-space:pre;}
  </style>
 </defs>
 <g id="figure_1">
  <g id="patch_1">
   <path d="M 0 360 
L 360 360 
L 360 0 
L 0 0 
z
" style="fill:#ffffff;"/>
  </g>
  <g id="axes_1">
   <g id="line2d_1">
    <path clip-path="url(#peb6cef54b7)" d="M 70.834362 220.742325 
L 63.993724 219.561605 
L 59.075774 219.028813 
L 53.618136 218.654724 
L 47.638597 218.456897 
L 41.157264 218.464577 
L 35.198965 218.694895 
L 31.327696 219.042921 
L 29.122135 219.461122 
L 27.752197 219.936567 
L 27.357654 220.290462 
L 27.182363 220.734031 
L 27.234461 221.131928 
L 27.521537 221.538637 
L 28.055991 221.825511 
L 29.72062 222.191092 
L 32.041338 222.461744 
L 36.484646 222.692676 
L 42.463268 222.800254 
L 48.950021 222.693747 
L 55.936546 222.351076 
L 62.904831 221.778686 
L 69.351137 221.032246 
L 70.834715 220.829648 
L 70.834715 220.829648 
" style="fill:none;stroke:#000000;stroke-linecap:square;stroke-opacity:0.7;stroke-width:1.2;"/>
   </g>
   <g id="line2d_2">
    <path clip-path="url(#peb6cef54b7)" d="M 70.833639 205.114771 
L 68.505689 204.478614 
L 58.040143 202.093244 
L 53.599069 201.300678 
L 50.165413 200.9093 
L 46.706451 200.750654 
L 42.716386 200.817506 
L 38.74542 201.11705 
L 35.332667 201.605355 
L 32.476559 202.22595 
L 30.257001 202.93019 
L 28.639574 203.665715 
L 27.763939 204.254786 
L 27.231583 204.866723 
L 27.197817 205.196842 
L 27.558497 205.551286 
L 28.392937 205.940945 
L 30.657378 206.584085 
L 33.517884 207.11098 
L 38.012959 207.650307 
L 42.537497 207.992641 
L 47.06612 208.126371 
L 51.567656 208.037019 
L 54.468865 207.766873 
L 57.359664 207.265078 
L 67.145701 205.284336 
L 69.514984 205.087444 
L 70.834975 205.110948 
L 70.834975 205.110948 
" style="fill:none;stroke:#000000;stroke-linecap:square;stroke-opacity:0.7;stroke-width:1.2;"/>
   </g>
   <g id="line2d_3">
    <path clip-path="url(#peb6cef54b7)" d="M 70.834963 189.396643 
L 64.385452 188.780908 
L 42.048799 186.397295 
L 38.167294 186.336593 
L 35.313083 186.493722 
L 32.531189 186.886895 
L 30.3566 187.440538 
L 28.769911 188.077861 
L 27.794918 188.645363 
L 27.213159 189.242553 
L 27.228351 189.538286 
L 27.526927 189.794005 
L 28.396176 190.086859 
L 30.123474 190.354771 
L 32.979338 190.544995 
L 42.991589 190.784849 
L 50.471249 190.753561 
L 56.941365 190.506994 
L 63.898822 190.010282 
L 70.834816 189.39037 
L 70.834816 189.39037 
" style="fill:none;stroke:#000000;stroke-linecap:square;stroke-opacity:0.7;stroke-width:1.2;"/>
   </g>
   <g id="line2d_4">
    <path clip-path="url(#peb6cef54b7)" d="M 70.834065 173.674119 
L 67.998691 172.955135 
L 54.500772 170.052173 
L 50.025212 169.33597 
L 46.064817 168.923553 
L 42.63105 168.810862 
L 39.704978 168.94141 
L 36.792335 169.286417 
L 33.940315 169.845722 
L 31.670648 170.503309 
L 29.989442 171.190549 
L 28.486209 172.038007 
L 27.69334 172.70952 
L 27.226622 173.380289 
L 27.185823 173.755435 
L 27.466704 174.101007 
L 28.205495 174.526218 
L 29.916653 175.135014 
L 32.204422 175.677634 
L 35.64093 176.197878 
L 39.605896 176.584275 
L 43.599338 176.728603 
L 47.039776 176.634065 
L 49.944554 176.319136 
L 54.951374 175.464034 
L 62.487077 174.206817 
L 66.447629 173.76663 
L 69.381103 173.640138 
L 70.83546 173.660309 
L 70.83546 173.660309 
" style="fill:none;stroke:#000000;stroke-linecap:square;stroke-opacity:0.7;stroke-width:1.2;"/>
   </g>
   <g id="line2d_5">
    <path clip-path="url(#peb6cef54b7)" d="M 70.834508 157.916916 
L 60.352256 155.103548 
L 55.378164 153.971203 
L 50.361632 153.052062 
L 46.376385 152.540661 
L 42.9009 152.338983 
L 39.94744 152.388089 
L 37.03314 152.672505 
L 34.649021 153.108122 
L 32.341075 153.736443 
L 30.684484 154.398683 
L 29.097727 155.320074 
L 28.182551 155.986806 
L 27.557354 156.781296 
L 27.198574 157.573653 
L 27.193579 158.09876 
L 27.484819 158.687347 
L 28.141622 159.303992 
L 29.051223 159.7693 
L 30.191905 160.077404 
L 31.999378 160.298166 
L 34.41325 160.344976 
L 37.913514 160.170517 
L 43.510425 159.620644 
L 48.569646 158.885445 
L 53.626513 158.237039 
L 59.231751 157.760965 
L 63.274483 157.598061 
L 66.763419 157.66748 
L 70.834713 157.986274 
L 70.834713 157.986274 
" style="fill:none;stroke:#000000;stroke-linecap:square;stroke-opacity:0.7;stroke-width:1.2;"/>
   </g>
   <g id="line2d_6">
    <path clip-path="url(#peb6cef54b7)" d="M 70.835671 142.23187 
L 49.717991 138.346993 
L 44.747898 137.635566 
L 40.789531 137.286725 
L 37.357009 137.20434 
L 34.50038 137.378488 
L 32.715689 137.680923 
L 31.049095 138.187345 
L 29.918919 138.713605 
L 28.944729 139.362103 
L 28.146092 140.132776 
L 27.475719 141.087773 
L 27.179454 141.863656 
L 27.204439 142.439356 
L 27.47618 142.952985 
L 27.914457 143.271845 
L 28.875938 143.516719 
L 30.08452 143.607385 
L 33.015814 143.472271 
L 47.802942 142.679212 
L 58.535061 142.405719 
L 70.833801 142.231471 
L 70.833801 142.231471 
" style="fill:none;stroke:#000000;stroke-linecap:square;stroke-opacity:0.7;stroke-width:1.2;"/>
   </g>
   <g id="line2d_7">
    <path clip-path="url(#peb6cef54b7)" d="M 123.23438 220.839253 
L 120.984505 220.242093 
L 115.194143 219.040775 
L 111.352996 218.482356 
L 107.466304 218.140586 
L 103.055035 217.971181 
L 98.122443 217.997015 
L 92.706181 218.242717 
L 88.314761 218.649222 
L 84.475651 219.21838 
L 81.749483 219.819983 
L 80.146362 220.39555 
L 79.612138 220.761235 
L 79.619201 220.934104 
L 80.054661 221.190589 
L 81.16645 221.589801 
L 82.896813 221.963309 
L 85.213729 222.254818 
L 88.072182 222.398589 
L 91.961355 222.354984 
L 96.886766 222.057378 
L 106.343549 221.209026 
L 113.775441 220.630539 
L 118.168596 220.480052 
L 121.493732 220.59935 
L 123.235713 220.833801 
L 123.235713 220.833801 
" style="fill:none;stroke:#000000;stroke-linecap:square;stroke-opacity:0.7;stroke-width:1.2;"/>
   </g>
   <g id="line2d_8">
    <path clip-path="url(#peb6cef54b7)" d="M 123.235964 204.958578 
L 120.454319 204.050213 
L 117.093127 203.22303 
L 112.634733 202.404952 
L 108.140116 201.801726 
L 104.13493 201.469204 
L 99.072749 201.296185 
L 93.509213 201.321524 
L 90.066892 201.58003 
L 86.616392 202.058344 
L 84.27138 202.554834 
L 82.069127 203.263927 
L 80.577139 203.977895 
L 79.776738 204.63157 
L 79.57427 205.075497 
L 79.68771 205.267904 
L 80.045293 205.435747 
L 80.389468 205.435167 
L 82.009998 205.219563 
L 92.595502 203.919765 
L 97.653303 203.5883 
L 103.764276 203.424069 
L 108.831454 203.479578 
L 113.357887 203.741639 
L 117.346659 204.181288 
L 121.287629 204.843089 
L 123.2358 205.265386 
L 123.2358 205.265386 
" style="fill:none;stroke:#000000;stroke-linecap:square;stroke-opacity:0.7;stroke-width:1.2;"/>
   </g>
   <g id="line2d_9">
    <path clip-path="url(#peb6cef54b7)" d="M 123.234958 189.39429 
L 119.022322 188.319221 
L 115.114616 187.66897 
L 108.64881 186.808361 
L 102.676834 186.245157 
L 97.705443 185.99303 
L 93.759133 185.991512 
L 89.854156 186.222544 
L 86.479751 186.653277 
L 83.69034 187.226682 
L 81.531442 187.923677 
L 80.499335 188.416348 
L 79.789706 188.993602 
L 79.579767 189.365491 
L 79.679647 189.623343 
L 80.148358 189.915549 
L 81.261255 190.229894 
L 83.026193 190.51668 
L 85.924606 190.721561 
L 90.39258 190.81799 
L 96.392439 190.699597 
L 101.882773 190.363584 
L 117.4133 189.22339 
L 120.835711 189.231198 
L 123.236378 189.384084 
L 123.236378 189.384084 
" style="fill:none;stroke:#000000;stroke-linecap:square;stroke-opacity:0.7;stroke-width:1.2;"/>
   </g>
   <g id="line2d_10">
    <path clip-path="url(#peb6cef54b7)" d="M 123.236384 173.670966 
L 122.25903 173.138136 
L 119.447991 172.07189 
L 114.459521 170.515387 
L 108.379235 168.84676 
L 102.249442 167.388674 
L 98.201913 166.600451 
L 95.782269 166.343873 
L 93.360223 166.349086 
L 90.954626 166.616412 
L 88.598523 167.144669 
L 86.323927 167.931581 
L 84.583435 168.745393 
L 82.946786 169.714369 
L 81.499986 170.82495 
L 80.307675 172.073575 
L 79.700819 173.027469 
L 79.560872 173.558865 
L 79.683569 173.911207 
L 79.935536 173.977741 
L 82.343291 173.748592 
L 90.634833 172.710158 
L 96.388664 172.288839 
L 104.310885 171.959138 
L 113.165014 171.727586 
L 116.158068 171.95453 
L 119.131561 172.435136 
L 121.507583 173.021985 
L 123.238952 173.666941 
L 123.238952 173.666941 
" style="fill:none;stroke:#000000;stroke-linecap:square;stroke-opacity:0.7;stroke-width:1.2;"/>
   </g>
   <g id="line2d_11">
    <path clip-path="url(#peb6cef54b7)" d="M 123.241915 157.935148 
L 115.998682 156.91673 
L 111.083195 156.065516 
L 107.139941 155.636952 
L 102.652244 155.383263 
L 97.129953 155.316922 
L 92.128377 155.488255 
L 87.652694 155.859914 
L 83.75483 156.392687 
L 81.492996 156.914739 
L 79.999214 157.481252 
L 79.605448 157.827706 
L 79.602374 158.070811 
L 79.822434 158.318163 
L 80.696074 158.728007 
L 82.410801 159.229323 
L 84.736482 159.671727 
L 88.67864 160.146522 
L 93.160876 160.468425 
L 98.167827 160.591478 
L 103.187746 160.498814 
L 107.669288 160.219403 
L 111.607315 159.762059 
L 115.532968 159.074293 
L 119.937327 158.325252 
L 123.238555 157.957443 
L 123.238555 157.957443 
" style="fill:none;stroke:#000000;stroke-linecap:square;stroke-opacity:0.7;stroke-width:1.2;"/>
   </g>
   <g id="line2d_12">
    <path clip-path="url(#peb6cef54b7)" d="M 123.232512 142.23805 
L 116.836268 141.18831 
L 110.455792 140.190711 
L 106.572127 139.785987 
L 102.662841 139.590947 
L 97.730726 139.587531 
L 91.787211 139.837605 
L 87.39395 140.227047 
L 83.551668 140.796907 
L 80.867978 141.408841 
L 79.778549 141.858219 
L 79.574942 142.177342 
L 79.6461 142.396649 
L 80.001591 142.626688 
L 81.040394 142.880034 
L 83.864476 143.25955 
L 88.787181 143.656013 
L 94.73651 143.889714 
L 101.205976 143.923626 
L 106.638303 143.739108 
L 111.045649 143.377821 
L 122.294174 142.233496 
L 123.235935 142.227268 
L 123.235935 142.227268 
" style="fill:none;stroke:#000000;stroke-linecap:square;stroke-opacity:0.7;stroke-width:1.2;"/>
   </g>
   <g id="line2d_13">
    <path clip-path="url(#peb6cef54b7)" d="M 175.636959 220.745035 
L 172.739856 220.280945 
L 160.742748 218.083008 
L 155.756189 217.450207 
L 151.263923 217.109342 
L 147.267372 217.012662 
L 143.289788 217.124396 
L 139.885252 217.445425 
L 137.615751 217.886605 
L 135.863304 218.436411 
L 133.746418 219.359356 
L 132.375876 220.187636 
L 131.982005 220.696683 
L 132.032209 220.929415 
L 132.300964 221.121173 
L 132.876838 221.190105 
L 144.345571 220.118011 
L 150.949364 219.991497 
L 158.046328 220.062224 
L 167.141992 220.507289 
L 173.109604 220.879861 
L 175.636965 220.919437 
L 175.636965 220.919437 
" style="fill:none;stroke:#000000;stroke-linecap:square;stroke-opacity:0.7;stroke-width:1.2;"/>
   </g>
   <g id="line2d_14">
    <path clip-path="url(#peb6cef54b7)" d="M 175.637072 205.111764 
L 173.918073 204.532433 
L 171.588136 203.983429 
L 167.160302 203.189767 
L 163.212896 202.685535 
L 159.249894 202.397361 
L 154.745404 202.293666 
L 148.679542 202.398125 
L 143.155773 202.674654 
L 139.195662 203.064909 
L 135.770864 203.595662 
L 133.564667 204.085194 
L 132.444476 204.579729 
L 131.992339 205.01692 
L 132.038204 205.228357 
L 132.324569 205.433879 
L 132.985774 205.657313 
L 134.149111 205.786255 
L 138.120014 205.788614 
L 175.636966 205.111787 
L 175.636966 205.111787 
" style="fill:none;stroke:#000000;stroke-linecap:square;stroke-opacity:0.7;stroke-width:1.2;"/>
   </g>
   <g id="line2d_15">
    <path clip-path="url(#peb6cef54b7)" d="M 175.637273 189.247186 
L 171.204931 188.486177 
L 164.687739 187.612822 
L 159.176543 187.09502 
L 153.653725 186.816449 
L 148.106003 186.772835 
L 142.061351 186.935702 
L 137.601662 187.283484 
L 134.75903 187.696216 
L 133.155473 188.134755 
L 132.424772 188.551762 
L 132.056169 188.998395 
L 131.970453 189.430676 
L 132.116585 189.89744 
L 132.519305 190.31125 
L 133.391512 190.725678 
L 135.061433 191.143936 
L 137.926838 191.55045 
L 141.884466 191.862488 
L 146.896666 192.005887 
L 151.901293 191.926409 
L 155.8425 191.626928 
L 159.765051 191.07798 
L 170.582718 189.276664 
L 172.897594 189.197129 
L 174.713118 189.345025 
L 175.63682 189.485447 
L 175.63682 189.485447 
" style="fill:none;stroke:#000000;stroke-linecap:square;stroke-opacity:0.7;stroke-width:1.2;"/>
   </g>
   <g id="line2d_16">
    <path clip-path="url(#peb6cef54b7)" d="M 175.636765 173.667834 
L 159.287313 172.164835 
L 153.370263 171.924493 
L 147.451679 171.92226 
L 142.040832 172.143671 
L 137.153671 172.563423 
L 133.396755 173.088079 
L 132.171282 173.443697 
L 131.986104 173.693078 
L 132.09841 173.807931 
L 132.410346 173.910111 
L 134.108726 174.104681 
L 138.524008 174.327363 
L 145.969141 174.509853 
L 152.911286 174.466754 
L 160.85967 174.18254 
L 174.202111 173.629672 
L 175.636949 173.669245 
L 175.636949 173.669245 
" style="fill:none;stroke:#000000;stroke-linecap:square;stroke-opacity:0.7;stroke-width:1.2;"/>
   </g>
   <g id="line2d_17">
    <path clip-path="url(#peb6cef54b7)" d="M 175.637363 157.95001 
L 152.580588 155.834859 
L 147.626152 155.642196 
L 143.192767 155.680587 
L 139.795259 155.905079 
L 136.938657 156.282022 
L 134.181956 156.863667 
L 132.649088 157.394937 
L 132.007977 157.868655 
L 132.042263 158.051529 
L 132.393415 158.274058 
L 133.431607 158.551018 
L 135.225544 158.759954 
L 139.665116 159.003763 
L 146.681989 159.120273 
L 157.240595 159.081502 
L 165.258529 158.838911 
L 171.217446 158.446811 
L 175.637515 157.955965 
L 175.637515 157.955965 
" style="fill:none;stroke:#000000;stroke-linecap:square;stroke-opacity:0.7;stroke-width:1.2;"/>
   </g>
   <g id="line2d_18">
    <path clip-path="url(#peb6cef54b7)" d="M 175.636599 142.235937 
L 172.769577 141.651689 
L 166.894572 140.1349 
L 161.509716 138.840865 
L 157.108981 138.021715 
L 153.187716 137.539132 
L 149.751663 137.344013 
L 146.33179 137.390156 
L 143.430734 137.641762 
L 140.571686 138.105963 
L 137.769545 138.79785 
L 135.563032 139.563087 
L 133.941057 140.332433 
L 132.634245 141.198991 
L 132.089435 141.815603 
L 131.98624 142.297143 
L 132.134261 142.628085 
L 132.605303 142.945488 
L 133.564269 143.22382 
L 135.371042 143.46242 
L 138.279839 143.574747 
L 145.381134 143.551608 
L 153.508577 143.301518 
L 162.140365 142.826972 
L 173.226076 142.168287 
L 175.637489 142.22522 
L 175.637489 142.22522 
" style="fill:none;stroke:#000000;stroke-linecap:square;stroke-opacity:0.7;stroke-width:1.2;"/>
   </g>
   <g id="line2d_19">
    <path clip-path="url(#peb6cef54b7)" d="M 228.037331 220.800833 
L 221.599526 220.222819 
L 216.174708 219.485781 
L 208.761834 218.497535 
L 204.363409 218.134215 
L 199.945862 218.023197 
L 195.53259 218.139905 
L 191.662071 218.478086 
L 188.822145 218.918313 
L 186.585943 219.451559 
L 185.159977 220.015132 
L 184.455621 220.566559 
L 184.394894 220.851977 
L 184.595198 221.13406 
L 184.836123 221.249868 
L 186.471993 221.510288 
L 190.883546 221.924889 
L 196.845108 222.280779 
L 202.798545 222.410908 
L 208.244895 222.291416 
L 220.217301 221.649868 
L 226.165113 221.104856 
L 228.038046 220.86689 
L 228.038046 220.86689 
" style="fill:none;stroke:#000000;stroke-linecap:square;stroke-opacity:0.7;stroke-width:1.2;"/>
   </g>
   <g id="line2d_20">
    <path clip-path="url(#peb6cef54b7)" d="M 228.038131 205.111494 
L 226.789802 204.190551 
L 225.138943 203.453815 
L 222.758936 202.686248 
L 218.72917 201.652318 
L 214.663474 200.821714 
L 210.541367 200.21121 
L 205.3119 199.670059 
L 197.410391 199.095644 
L 194.914729 199.071018 
L 193.002423 199.226984 
L 191.192515 199.593259 
L 189.463279 200.197029 
L 187.839623 201.032767 
L 186.380011 202.077993 
L 185.463751 202.974487 
L 184.762251 203.9222 
L 184.407096 204.787959 
L 184.389487 205.311991 
L 184.532784 205.53704 
L 184.961572 205.728414 
L 186.097032 205.777612 
L 188.599792 205.660094 
L 192.185992 205.245234 
L 198.456876 204.241232 
L 205.232222 203.212594 
L 209.365807 202.800528 
L 212.973743 202.649246 
L 216.567417 202.721788 
L 220.133318 203.040666 
L 223.155346 203.523951 
L 225.558348 204.086031 
L 227.262609 204.711883 
L 228.04077 205.111197 
L 228.04077 205.111197 
" style="fill:none;stroke:#000000;stroke-linecap:square;stroke-opacity:0.7;stroke-width:1.2;"/>
   </g>
   <g id="line2d_21">
    <path clip-path="url(#peb6cef54b7)" d="M 228.042016 189.379369 
L 224.216301 188.522843 
L 219.328349 187.677617 
L 213.902979 186.944915 
L 208.463583 186.430977 
L 203.51153 186.17435 
L 199.069266 186.14202 
L 195.151626 186.313638 
L 191.780234 186.663536 
L 188.95593 187.159897 
L 186.808884 187.763438 
L 185.30644 188.443789 
L 184.594792 188.974905 
L 184.379328 189.350405 
L 184.452521 189.56476 
L 184.690396 189.712164 
L 185.651181 189.806585 
L 188.517385 189.818745 
L 195.019356 189.514629 
L 208.581042 188.89063 
L 215.57776 188.822263 
L 221.555399 188.980641 
L 228.037757 189.396845 
L 228.037757 189.396845 
" style="fill:none;stroke:#000000;stroke-linecap:square;stroke-opacity:0.7;stroke-width:1.2;"/>
   </g>
   <g id="line2d_22">
    <path clip-path="url(#peb6cef54b7)" d="M 228.038166 173.456121 
L 224.597617 173.490831 
L 219.591501 173.275228 
L 212.535686 172.726767 
L 193.958365 171.099673 
L 191.047825 171.147646 
L 188.704899 171.365116 
L 186.987938 171.72212 
L 185.476382 172.285834 
L 184.80332 172.761652 
L 184.447473 173.29631 
L 184.384752 173.764512 
L 184.563102 174.271099 
L 185.116028 174.897262 
L 185.979564 175.456113 
L 187.549084 176.084291 
L 189.285631 176.535288 
L 191.611875 176.887471 
L 194.497408 177.081575 
L 197.92424 177.062419 
L 201.893964 176.8164 
L 207.915874 176.187821 
L 228.037967 173.882044 
L 228.037967 173.882044 
" style="fill:none;stroke:#000000;stroke-linecap:square;stroke-opacity:0.7;stroke-width:1.2;"/>
   </g>
   <g id="line2d_23">
    <path clip-path="url(#peb6cef54b7)" d="M 228.037621 157.951552 
L 221.113451 157.000226 
L 212.713517 155.878458 
L 207.800488 155.463812 
L 203.378376 155.302429 
L 198.964856 155.364119 
L 194.550593 155.656491 
L 190.168748 156.159609 
L 186.890691 156.762076 
L 185.243641 157.254505 
L 184.493423 157.661617 
L 184.400274 157.995115 
L 184.530581 158.189203 
L 185.049827 158.455669 
L 186.711521 158.776587 
L 190.071902 159.182626 
L 194.495018 159.485066 
L 200.445858 159.66276 
L 205.383418 159.598749 
L 210.315294 159.315674 
L 218.289348 158.570547 
L 225.201189 157.976417 
L 228.038097 157.949836 
L 228.038097 157.949836 
" style="fill:none;stroke:#000000;stroke-linecap:square;stroke-opacity:0.7;stroke-width:1.2;"/>
   </g>
   <g id="line2d_24">
    <path clip-path="url(#peb6cef54b7)" d="M 228.038728 142.152183 
L 217.022665 140.143026 
L 209.536116 138.950298 
L 205.604297 138.54448 
L 202.168363 138.413016 
L 198.733251 138.503005 
L 195.314913 138.819352 
L 191.926841 139.362623 
L 189.098277 140.007675 
L 186.908784 140.734793 
L 185.299021 141.483955 
L 184.428437 142.088478 
L 184.419745 142.301393 
L 184.708923 142.495036 
L 186.255689 143.046156 
L 187.959624 143.305131 
L 189.200168 143.335395 
L 192.040844 143.038825 
L 196.524805 142.713743 
L 205.661494 142.347944 
L 214.808713 142.194854 
L 224.982387 142.255674 
L 228.038075 142.311295 
L 228.038075 142.311295 
" style="fill:none;stroke:#000000;stroke-linecap:square;stroke-opacity:0.7;stroke-width:1.2;"/>
   </g>
   <g id="line2d_25">
    <path clip-path="url(#peb6cef54b7)" d="M 280.439342 220.748067 
L 277.54996 220.642145 
L 274.656757 220.319313 
L 271.290413 219.701058 
L 266.913333 218.614385 
L 262.576544 217.602024 
L 259.737248 217.184039 
L 256.829449 217.00945 
L 252.871992 217.007414 
L 248.924522 217.242068 
L 245.502715 217.646969 
L 242.130862 218.261117 
L 239.883387 218.866846 
L 238.249967 219.520455 
L 237.321531 220.052204 
L 236.850613 220.564255 
L 236.783844 220.894979 
L 236.989486 221.161935 
L 237.666579 221.423385 
L 239.948609 221.72413 
L 243.910579 221.981575 
L 250.996553 222.19043 
L 261.169168 222.24554 
L 268.754981 222.108706 
L 274.262349 221.786796 
L 277.659201 221.392402 
L 280.439045 220.92185 
L 280.439045 220.92185 
" style="fill:none;stroke:#000000;stroke-linecap:square;stroke-opacity:0.7;stroke-width:1.2;"/>
   </g>
   <g id="line2d_26">
    <path clip-path="url(#peb6cef54b7)" d="M 280.438523 205.119102 
L 270.907378 204.116038 
L 261.876538 202.848259 
L 253.395532 201.721947 
L 249.472923 201.438921 
L 246.584411 201.433508 
L 244.241782 201.623339 
L 241.970984 202.031831 
L 240.247719 202.537577 
L 238.677341 203.228999 
L 237.412371 204.062516 
L 236.925385 204.659468 
L 236.776526 205.161643 
L 236.934299 205.378941 
L 237.714879 205.694982 
L 239.432694 206.045455 
L 242.334801 206.388836 
L 248.854533 206.891829 
L 255.388699 207.177402 
L 261.922769 207.225007 
L 267.934765 207.047088 
L 271.854699 206.721846 
L 275.206057 206.201203 
L 280.438675 205.108683 
L 280.438675 205.108683 
" style="fill:none;stroke:#000000;stroke-linecap:square;stroke-opacity:0.7;stroke-width:1.2;"/>
   </g>
   <g id="line2d_27">
    <path clip-path="url(#peb6cef54b7)" d="M 280.438503 189.392229 
L 275.573255 188.629354 
L 268.654294 187.804439 
L 261.721824 187.187438 
L 255.277305 186.83374 
L 250.352072 186.757625 
L 246.461315 186.901069 
L 243.101072 187.227844 
L 240.295461 187.687552 
L 238.65504 188.143894 
L 237.293737 188.788381 
L 236.794619 189.287811 
L 236.798575 189.493713 
L 237.024305 189.702893 
L 237.815811 190.028481 
L 239.531832 190.369767 
L 241.852379 190.601792 
L 246.775605 190.793127 
L 252.731911 190.803594 
L 261.208955 190.577654 
L 267.140279 190.221812 
L 278.502742 189.39987 
L 280.439305 189.385458 
L 280.439305 189.385458 
" style="fill:none;stroke:#000000;stroke-linecap:square;stroke-opacity:0.7;stroke-width:1.2;"/>
   </g>
   <g id="line2d_28">
    <path clip-path="url(#peb6cef54b7)" d="M 280.443637 173.665388 
L 280.194453 173.524977 
L 277.881012 172.871695 
L 272.411103 171.290445 
L 269.076576 170.06124 
L 266.761923 169.312786 
L 263.850514 168.652743 
L 260.872289 168.2208 
L 257.847678 167.991782 
L 254.30882 167.963064 
L 251.288745 168.14917 
L 248.296283 168.537591 
L 245.359484 169.142846 
L 242.504013 169.984491 
L 240.264381 170.882988 
L 238.6122 171.763938 
L 237.573995 172.483332 
L 236.935853 173.151663 
L 236.766652 173.615792 
L 236.827066 173.940547 
L 237.01301 174.148794 
L 237.780045 174.602562 
L 239.014793 174.99473 
L 241.391038 175.501424 
L 244.918696 175.956164 
L 249.024713 176.259849 
L 253.671397 176.381522 
L 257.767906 176.266337 
L 261.317665 175.947965 
L 264.245932 175.493125 
L 271.604302 173.858368 
L 274.606154 173.52819 
L 277.079421 173.432913 
L 279.492537 173.556404 
L 280.438937 173.678262 
L 280.438937 173.678262 
" style="fill:none;stroke:#000000;stroke-linecap:square;stroke-opacity:0.7;stroke-width:1.2;"/>
   </g>
   <g id="line2d_29">
    <path clip-path="url(#peb6cef54b7)" d="M 280.440251 157.948228 
L 273.55016 156.044277 
L 267.102432 154.492749 
L 261.627702 153.379315 
L 257.150991 152.682492 
L 253.172197 152.281334 
L 249.689472 152.134576 
L 246.769622 152.206389 
L 244.464036 152.496867 
L 242.715044 152.930491 
L 241.053079 153.57156 
L 239.521723 154.419077 
L 238.21604 155.444558 
L 237.427712 156.326063 
L 236.872647 157.247586 
L 236.762553 157.805802 
L 236.886672 158.205223 
L 237.293735 158.62695 
L 237.751414 158.851478 
L 238.905168 159.152855 
L 240.733052 159.372036 
L 243.650432 159.486574 
L 247.133735 159.384985 
L 254.291943 158.872259 
L 262.461002 158.366301 
L 270.658253 158.107391 
L 280.439459 157.956418 
L 280.439459 157.956418 
" style="fill:none;stroke:#000000;stroke-linecap:square;stroke-opacity:0.7;stroke-width:1.2;"/>
   </g>
   <g id="line2d_30">
    <path clip-path="url(#peb6cef54b7)" d="M 280.43966 142.227517 
L 263.639688 139.274097 
L 259.200682 138.821552 
L 254.761219 138.589757 
L 250.820852 138.591893 
L 246.894989 138.810203 
L 243.520424 139.198446 
L 241.2376 139.65338 
L 239.51051 140.177524 
L 238.066099 140.855205 
L 237.225274 141.488168 
L 236.82868 142.014158 
L 236.802637 142.307271 
L 236.995658 142.547046 
L 237.699554 142.900648 
L 238.827134 143.17728 
L 241.16879 143.480954 
L 244.590584 143.703678 
L 250.077485 143.806364 
L 255.558825 143.689561 
L 260.529615 143.369594 
L 275.013453 142.228616 
L 279.455942 142.206949 
L 280.439698 142.237127 
L 280.439698 142.237127 
" style="fill:none;stroke:#000000;stroke-linecap:square;stroke-opacity:0.7;stroke-width:1.2;"/>
   </g>
   <g id="line2d_31">
    <path clip-path="url(#peb6cef54b7)" d="M 332.840079 220.833703 
L 324.844907 219.931617 
L 309.893455 218.170555 
L 303.394375 217.79885 
L 298.960731 217.724075 
L 295.594632 217.90238 
L 293.366057 218.237759 
L 291.748046 218.737884 
L 290.376983 219.398979 
L 289.551387 220.153544 
L 289.182484 220.702149 
L 289.24323 220.93522 
L 289.613754 221.195963 
L 290.613514 221.499707 
L 293.446576 221.930555 
L 297.363861 222.329386 
L 301.806996 222.548727 
L 306.767932 222.550143 
L 312.252328 222.325158 
L 320.284939 221.743125 
L 332.339351 220.856279 
L 332.838117 220.830711 
L 332.838117 220.830711 
" style="fill:none;stroke:#000000;stroke-linecap:square;stroke-opacity:0.7;stroke-width:1.2;"/>
   </g>
   <g id="line2d_32">
    <path clip-path="url(#peb6cef54b7)" d="M 332.83922 205.109842 
L 314.115839 202.636011 
L 309.719098 202.360573 
L 305.311289 202.297204 
L 300.402328 202.459079 
L 296.022931 202.801568 
L 293.728881 203.144636 
L 291.557219 203.705666 
L 289.964208 204.328854 
L 289.314488 204.743507 
L 289.189765 205.034692 
L 289.350867 205.274032 
L 289.682462 205.392194 
L 294.036533 205.659144 
L 303.979752 206.160604 
L 309.900218 206.223248 
L 314.829144 206.047238 
L 332.840191 205.11113 
L 332.840191 205.11113 
" style="fill:none;stroke:#000000;stroke-linecap:square;stroke-opacity:0.7;stroke-width:1.2;"/>
   </g>
   <g id="line2d_33">
    <path clip-path="url(#peb6cef54b7)" d="M 332.840388 189.325042 
L 324.908494 187.881804 
L 316.474238 186.528739 
L 312.039979 186.032919 
L 306.569678 185.637806 
L 302.638924 185.552342 
L 299.24858 185.695776 
L 296.419029 186.044705 
L 294.13092 186.534582 
L 291.927764 187.22686 
L 290.839584 187.721468 
L 289.965638 188.33403 
L 289.208069 189.15087 
L 289.207875 189.449547 
L 289.423342 189.67308 
L 289.91781 189.842401 
L 291.095159 189.787433 
L 300.098711 189.205557 
L 306.619079 189.028133 
L 314.669698 189.051279 
L 327.303363 189.364751 
L 332.840216 189.456215 
L 332.840216 189.456215 
" style="fill:none;stroke:#000000;stroke-linecap:square;stroke-opacity:0.7;stroke-width:1.2;"/>
   </g>
   <g id="line2d_34">
    <path clip-path="url(#peb6cef54b7)" d="M 332.839337 173.586501 
L 325.440428 172.225072 
L 319.509544 171.346478 
L 313.546435 170.687819 
L 307.066067 170.178091 
L 303.141922 170.061298 
L 299.738019 170.170965 
L 296.350324 170.483999 
L 294.081115 170.891305 
L 292.346344 171.391174 
L 290.745475 172.057734 
L 289.822075 172.610641 
L 289.240904 173.247521 
L 289.167957 173.634438 
L 289.354099 173.838144 
L 289.962914 174.023943 
L 291.630587 174.021492 
L 301.575928 173.532521 
L 314.700057 173.386326 
L 325.791293 173.478001 
L 332.840252 173.671707 
L 332.840252 173.671707 
" style="fill:none;stroke:#000000;stroke-linecap:square;stroke-opacity:0.7;stroke-width:1.2;"/>
   </g>
   <g id="line2d_35">
    <path clip-path="url(#peb6cef54b7)" d="M 332.840022 157.904023 
L 314.949843 156.645207 
L 305.532727 156.21671 
L 299.135978 156.139068 
L 295.269696 156.286225 
L 292.512022 156.602387 
L 290.799158 156.988543 
L 289.820179 157.355293 
L 289.215339 157.817729 
L 289.200981 158.054057 
L 289.332914 158.182319 
L 290.021745 158.408144 
L 291.144893 158.486409 
L 294.520454 158.42484 
L 304.924533 158.086995 
L 317.373523 157.995789 
L 332.840614 157.990085 
L 332.840614 157.990085 
" style="fill:none;stroke:#000000;stroke-linecap:square;stroke-opacity:0.7;stroke-width:1.2;"/>
   </g>
   <g id="line2d_36">
    <path clip-path="url(#peb6cef54b7)" d="M 332.840568 142.230523 
L 327.9223 141.532741 
L 311.61078 138.983131 
L 307.176863 138.624547 
L 302.751145 138.494372 
L 299.350794 138.602969 
L 296.477192 138.883869 
L 294.180321 139.284576 
L 292.455393 139.766527 
L 290.89319 140.416012 
L 290.017744 140.989465 
L 289.386365 141.67266 
L 289.165765 142.221622 
L 289.275378 142.456349 
L 289.543382 142.611356 
L 290.558432 142.951416 
L 292.276943 143.197239 
L 295.657286 143.390587 
L 300.114594 143.387915 
L 307.651291 143.134636 
L 332.342633 142.227706 
L 332.840176 142.225157 
L 332.840176 142.225157 
" style="fill:none;stroke:#000000;stroke-linecap:square;stroke-opacity:0.7;stroke-width:1.2;"/>
   </g>
  </g>
 </g>
 <defs>
  <clipPath id="peb6cef54b7">
   <rect height="334.08" width="334.08" x="12.96" y="12.96"/>
  </clipPath>
 </defs>
</svg>
